<?xml version="1.0" encoding="UTF-8" standalone="no"?>
<!-- Generator: Adobe Illustrator 26.3.1, SVG Export Plug-In . SVG Version: 6.00 Build 0)  -->

<svg
   xmlns:dc="http://purl.org/dc/elements/1.1/"
   xmlns:cc="http://creativecommons.org/ns#"
   xmlns:rdf="http://www.w3.org/1999/02/22-rdf-syntax-ns#"
   xmlns:svg="http://www.w3.org/2000/svg"
   xmlns="http://www.w3.org/2000/svg"
   xmlns:sodipodi="http://sodipodi.sourceforge.net/DTD/sodipodi-0.dtd"
   xmlns:inkscape="http://www.inkscape.org/namespaces/inkscape"
   version="1.1"
   id="Layer_1"
   x="0px"
   y="0px"
   width="185px"
   height="188px"
   viewBox="0 0 185 188"
   enable-background="new 0 0 185 188"
   xml:space="preserve"
   sodipodi:docname="logos-noyear.svg"
   inkscape:version="0.92.5 (2060ec1f9f, 2020-04-08)"><metadata
   id="metadata121"><rdf:RDF><cc:Work
       rdf:about=""><dc:format>image/svg+xml</dc:format><dc:type
         rdf:resource="http://purl.org/dc/dcmitype/StillImage" /><dc:title></dc:title></cc:Work></rdf:RDF></metadata><defs
   id="defs119" /><sodipodi:namedview
   pagecolor="#ffffff"
   bordercolor="#666666"
   borderopacity="1"
   objecttolerance="10"
   gridtolerance="10"
   guidetolerance="10"
   inkscape:pageopacity="0"
   inkscape:pageshadow="2"
   inkscape:window-width="1920"
   inkscape:window-height="1016"
   id="namedview117"
   showgrid="false"
   inkscape:zoom="2.5106383"
   inkscape:cx="96.074977"
   inkscape:cy="88.410825"
   inkscape:window-x="0"
   inkscape:window-y="0"
   inkscape:window-maximized="1"
   inkscape:current-layer="g114" />
<g
   id="g38">
	<g
   id="g4">
		<path
   d="M-0.8,54.7c-0.1,1,0.7,1.9,1.7,1.9h3.4c0.9,0,1.6-0.6,1.7-1.5c0.1-0.5,0.2-1.2,0.4-1.9h33c0.2,0.7,0.3,1.4,0.4,1.9    c0.1,0.8,0.8,1.5,1.7,1.5h3.4c1,0,1.8-0.9,1.7-1.9c-0.5-4-2.7-13.5-12.6-21.9c-1.8,1.3-3.9,2.6-6.2,3.8c0.7,0.5,1.2,1,1.8,1.5    H16.1c2.2-1.9,5-3.8,8.3-5.4c18.2-9,21.5-23.1,22.1-28.2c0.1-1-0.7-1.9-1.7-1.9h-3.4c-0.9,0-1.6,0.6-1.7,1.5    c-0.1,0.5-0.2,1.2-0.4,1.9h-33C6.2,5.2,6.1,4.5,6,4C5.9,3.1,5.2,2.5,4.3,2.5H0.9c-1,0-1.8,0.9-1.7,1.9c0.5,4.5,3.3,16.3,16.9,25.2    C2.5,38.5-0.2,50.2-0.8,54.7z M22.9,25.7c-2.7-1.5-4.9-3-6.8-4.6h13.6C27.8,22.7,25.5,24.3,22.9,25.7z M36.7,12.7    c-0.6,1.1-1.4,2.2-2.2,3.3H11.2c-0.9-1.1-1.6-2.3-2.2-3.4L36.7,12.7z M9,46.4c0.6-1.1,1.3-2.2,2.2-3.4h23.2    c0.9,1.1,1.6,2.3,2.2,3.4H9z"
   id="path2" />
	</g>
	<g
   id="g26"
   transform="translate(0,10.8)">
		<path
   d="m 54.8,25 c 0.1,-1.1 0.2,-2.1 0.3,-2.9 0.1,-0.9 0.1,-1.9 0.2,-3 0,-1.2 0.1,-2.4 0.1,-3.6 0,-1.3 0,-2.3 0,-3 0.8,0 1.4,0 1.9,0 0.5,0 1.1,0 1.8,0 0.7,0 1.4,0 2.1,0 0.8,0 1.5,0 2.1,0.1 0.5,0 0.9,0.1 1.3,0.3 0.4,0.1 0.7,0.3 1,0.5 0.3,0.2 0.5,0.4 0.6,0.7 0.1,0.3 0.3,0.5 0.4,0.8 0.1,0.3 0.1,0.7 0.1,1 0,0.4 -0.1,0.8 -0.2,1.2 -0.1,0.4 -0.3,0.7 -0.5,1 -0.2,0.3 -0.5,0.6 -0.9,0.8 -0.3,0.2 -0.8,0.5 -1.4,0.7 l 0.5,1.2 c 0.1,0.3 0.3,0.7 0.4,1 l 1.2,2.7 c 0.1,0.1 0.2,0.3 0.3,0.7 -1,0 -1.7,0 -2.1,0 -0.4,0 -1.2,0 -2.2,0 C 61.7,24.9 61.5,24.3 61.3,23.4 61.2,23 61.1,22.8 61,22.6 60.9,22.2 60.6,21.5 60.3,20.8 l -1,-2.6 c 0.3,0.1 0.7,0.1 1,0.1 0.5,0 0.9,-0.1 1.2,-0.2 0.4,-0.1 0.6,-0.3 0.8,-0.6 0.2,-0.3 0.3,-0.6 0.3,-0.9 0,-0.3 -0.1,-0.5 -0.2,-0.7 C 62.3,15.7 62,15.5 61.7,15.5 61.6,15 61.2,15 60.5,15 c -0.2,0 -0.4,0 -0.7,0 -0.2,0 -0.5,0 -0.8,0 -0.1,1.3 -0.1,2.8 -0.2,4.6 -0.1,1.8 -0.1,3.6 -0.1,5.4 -1,0 -1.7,0 -2,0 -0.4,0 -1,0 -1.9,0 z"
   id="path6"
   inkscape:connector-curvature="0" />
		<path
   d="m 68.1,25 c 0.2,-1.6 0.3,-2.9 0.3,-4 0,-1.1 0.1,-2.5 0.2,-4.3 0.1,-1.8 0.1,-3 0.1,-3.5 v -0.8 c 1.5,0 3.2,0 5.3,0 1.9,0 3.6,0 5.1,0 v 0.3 c 0,0.1 0,0.3 0,0.8 l -0.1,1 c 0,0.2 0,0.4 0,0.7 -1.2,0 -2.2,-0.1 -3,-0.1 -0.9,0 -1.5,0 -1.8,0 -0.3,0 -0.8,0 -1.5,0 l -0.1,2.1 c 0.7,0 1.6,0 2.6,0 0.3,0 1.3,0 2.8,-0.1 -0.1,0.8 -0.1,1.7 -0.2,2.8 -1.1,0 -1.9,0 -2.5,0 -0.9,0 -1.8,0 -2.9,0.1 l -0.1,2.3 h 1.1 c 0.3,0 1,0 2,0 h 1.9 c 0.3,0 0.8,0 1.4,-0.1 -0.1,0.9 -0.1,1.9 -0.2,2.8 -1.5,0 -3.2,0 -5,0 h -4.1 z"
   id="path8"
   inkscape:connector-curvature="0" />
		<path
   d="m 91.6,21.9 c -0.1,0.4 -0.2,0.9 -0.3,1.5 -0.1,0.7 -0.2,1.2 -0.2,1.5 -1.3,0.2 -2.5,0.3 -3.5,0.3 -1,0 -1.9,-0.1 -2.8,-0.4 -0.9,-0.2 -1.7,-0.7 -2.4,-1.2 -0.7,-0.6 -1.2,-1.2 -1.5,-2 -0.3,-0.8 -0.5,-1.6 -0.5,-2.6 0,-1.1 0.2,-2.1 0.6,-3 0.4,-0.9 1,-1.6 1.8,-2.2 0.8,-0.6 1.6,-1 2.6,-1.3 0.9,-0.3 1.9,-0.4 2.9,-0.4 0.9,0 2,0.1 3.4,0.4 v 0.8 c 0,0.3 0,0.7 0.1,1.1 l 0.1,1.1 C 91.2,15.3 90.6,15.2 90.1,15.1 89.6,15 89.2,15 88.8,15 c -0.8,0 -1.6,0.2 -2.3,0.5 -0.7,0.3 -1.2,0.8 -1.6,1.5 -0.4,0.6 -0.6,1.3 -0.6,2.1 0,0.7 0.2,1.3 0.5,1.8 0.3,0.5 0.8,0.9 1.3,1.2 0.5,0.3 1.2,0.4 2,0.4 0.4,0 0.9,0 1.4,-0.1 0.6,-0.1 1.3,-0.3 2.1,-0.5 z"
   id="path10"
   inkscape:connector-curvature="0" />
		<path
   d="m 101,12.1 c 1,0 1.9,0.1 2.9,0.4 0.9,0.3 1.7,0.7 2.4,1.3 0.7,0.6 1.2,1.3 1.5,2 0.3,0.8 0.5,1.6 0.5,2.6 0,1 -0.2,2 -0.6,2.9 -0.4,0.9 -0.9,1.6 -1.6,2.2 -0.7,0.6 -1.5,1 -2.5,1.3 -1,0.3 -2,0.4 -3.1,0.4 -1,0 -2,-0.1 -3,-0.4 -1,-0.3 -1.8,-0.7 -2.5,-1.3 -0.7,-0.6 -1.2,-1.3 -1.5,-2.1 -0.3,-0.8 -0.4,-1.6 -0.4,-2.5 0,-1.4 0.3,-2.5 0.9,-3.6 0.6,-1 1.6,-1.8 2.8,-2.4 1.3,-0.5 2.7,-0.8 4.2,-0.8 z m -0.2,2.8 c -0.7,0 -1.4,0.2 -1.9,0.5 -0.6,0.3 -1,0.8 -1.3,1.5 -0.3,0.6 -0.5,1.3 -0.5,2 0,0.7 0.1,1.3 0.4,1.8 0.3,0.5 0.7,1 1.3,1.3 0.6,0.3 1.2,0.5 1.8,0.5 0.7,0 1.3,-0.2 1.9,-0.5 0.6,-0.3 1,-0.8 1.3,-1.4 0.3,-0.6 0.5,-1.3 0.5,-2 0,-0.7 -0.1,-1.3 -0.4,-1.8 -0.3,-0.6 -0.7,-1 -1.2,-1.3 -0.6,-0.5 -1.2,-0.6 -1.9,-0.6 z"
   id="path12"
   inkscape:connector-curvature="0" />
		<path
   d="m 109.6,25 0.2,-1.9 0.6,-6.5 0.3,-4.3 c 1.1,0 2,0 2.7,0 0.5,0 1.4,0 2.5,0 0.1,0.5 0.1,0.9 0.2,1.2 0.1,0.3 0.2,0.8 0.4,1.6 0.2,0.8 0.4,1.5 0.5,2.1 0.1,0.6 0.3,1.6 0.6,3 0.3,-1 0.5,-1.8 0.7,-2.5 0.2,-0.7 0.5,-1.5 0.8,-2.4 0.3,-0.9 0.5,-1.5 0.6,-1.7 0.1,-0.3 0.2,-0.7 0.4,-1.3 0.9,0 1.8,0 2.7,0 0.6,0 1.4,0 2.5,0 -0.1,2.1 -0.2,3.9 -0.2,5.4 -0.1,2.9 -0.1,4.9 -0.1,6 0,0.2 0,0.6 0,1.2 -0.8,0 -1.4,0 -1.7,0 -0.5,0 -1.1,0 -1.8,0 0,-0.6 0.1,-1.9 0.2,-4 0.1,-2.1 0.1,-3.4 0.1,-4 0,-0.3 0,-0.6 0,-1.1 l -1.2,3.8 -1.7,5.3 c -0.8,0 -1.4,0 -1.7,0 -0.4,0 -1,0 -1.8,0 l -1.1,-5.1 -0.7,-2.7 c 0,-0.1 -0.1,-0.2 -0.1,-0.4 0,-0.2 -0.1,-0.4 -0.1,-0.8 l -0.2,2.6 -0.3,5.3 V 25 c -0.9,0 -1.4,0 -1.6,0 -0.4,0 -0.9,0 -1.7,0 z"
   id="path14"
   inkscape:connector-curvature="0" />
		<path
   d="m 127.3,25 c 0.1,-1.4 0.2,-2.4 0.3,-3.2 0.1,-1.1 0.1,-2.5 0.2,-4.4 0.1,-1.9 0.1,-3.2 0.1,-3.9 0,-0.3 0,-0.7 0,-1.2 0.8,0 1.5,0 2,0 0.7,0 1.5,0 2.4,0 0.9,0 1.7,0 2.3,0 0.8,0 1.3,0 1.7,0.1 0.4,0.1 0.8,0.2 1.1,0.3 0.3,0.1 0.6,0.3 0.8,0.5 0.2,0.2 0.4,0.5 0.6,0.9 0.2,0.4 0.2,0.8 0.2,1.3 0,0.4 0,0.7 -0.1,1 -0.1,0.3 -0.2,0.6 -0.4,0.9 -0.2,0.3 -0.3,0.5 -0.6,0.6 -0.2,0.2 -0.4,0.3 -0.6,0.4 -0.2,0.1 -0.5,0.2 -0.8,0.3 0.3,0.1 0.6,0.1 0.8,0.2 0.2,0.1 0.4,0.2 0.6,0.3 0.2,0.2 0.4,0.4 0.6,0.6 0.2,0.2 0.3,0.5 0.4,0.8 0.1,0.3 0.1,0.6 0.1,1 0,0.5 -0.1,0.9 -0.2,1.3 -0.2,0.4 -0.4,0.8 -0.6,1.1 -0.2,0.3 -0.5,0.5 -0.9,0.6 -0.4,0.2 -0.8,0.3 -1.2,0.4 -0.3,0 -0.9,0.1 -1.8,0.1 -0.9,0 -1.8,0 -2.7,0 h -2.4 z m 4,-2.5 h 1.8 c 0.5,0 0.8,0 1,-0.1 0.3,-0.1 0.5,-0.2 0.6,-0.3 0.1,-0.1 0.3,-0.3 0.3,-0.5 0.1,-0.2 0.1,-0.4 0.1,-0.6 0,-0.2 0,-0.4 -0.1,-0.5 -0.1,-0.2 -0.2,-0.3 -0.3,-0.4 -0.1,-0.1 -0.3,-0.2 -0.5,-0.2 -0.2,0 -0.5,-0.1 -0.9,-0.1 h -2 z m 0.2,-5.2 h 1.3 c 0.4,0 0.7,0 0.9,0 0.2,0 0.4,-0.1 0.5,-0.1 0.2,-0.1 0.3,-0.1 0.5,-0.3 0.2,-0.2 0.2,-0.3 0.3,-0.4 0.1,-0.2 0.1,-0.3 0.1,-0.5 0,-0.2 -0.1,-0.4 -0.2,-0.6 -0.1,-0.2 -0.3,-0.3 -0.5,-0.4 -0.2,-0.1 -0.6,-0.1 -1.1,-0.1 h -1.7 z"
   id="path16"
   inkscape:connector-curvature="0" />
		<path
   d="m 139.8,21.4 c 0.1,-0.9 0.1,-1.8 0.1,-2.6 0.9,0 1.7,0 2.5,0 0.8,0 1.6,0 2.5,0 -0.1,0.8 -0.1,1.7 -0.1,2.6 -0.9,0 -1.7,0 -2.5,0 -0.8,-0.1 -1.6,-0.1 -2.5,0 z"
   id="path18"
   inkscape:connector-curvature="0" />
		<path
   d="m 145.7,24.8 c -0.1,-1.3 -0.2,-2.4 -0.3,-3.2 0.7,0.3 1.3,0.5 1.9,0.6 0.5,0.1 1,0.2 1.4,0.2 0.5,0 1,-0.1 1.3,-0.2 0.3,-0.2 0.5,-0.4 0.5,-0.7 0,-0.1 0,-0.2 0,-0.3 0,-0.1 -0.1,-0.2 -0.2,-0.3 -0.1,-0.1 -0.2,-0.3 -0.4,-0.4 L 148.2,19 c -0.4,-0.3 -0.7,-0.6 -0.9,-0.8 -0.3,-0.3 -0.6,-0.6 -0.8,-0.9 -0.2,-0.3 -0.3,-0.5 -0.4,-0.8 -0.1,-0.3 -0.1,-0.6 -0.1,-0.9 0,-0.4 0.1,-0.7 0.2,-1.1 0.1,-0.4 0.3,-0.7 0.6,-1 0.3,-0.3 0.6,-0.6 1.1,-0.8 0.4,-0.2 0.9,-0.4 1.4,-0.5 0.5,-0.1 1,-0.1 1.5,-0.1 1,0 2.2,0.1 3.4,0.4 0,0.4 0,0.8 0.1,1.2 0,0.4 0.1,1 0.2,1.9 -0.6,-0.2 -1.1,-0.4 -1.6,-0.5 C 152.4,15 152,15 151.7,15 c -0.5,0 -0.9,0.1 -1.2,0.3 -0.3,0.2 -0.5,0.4 -0.5,0.7 0,0.1 0,0.2 0.1,0.4 0,0.1 0.1,0.3 0.3,0.4 0.1,0.2 0.3,0.3 0.5,0.5 0.2,0.2 0.6,0.5 1,0.8 l 0.7,0.5 c 0.2,0.2 0.4,0.4 0.6,0.6 0.2,0.2 0.4,0.5 0.6,0.7 0.2,0.2 0.3,0.4 0.4,0.6 0.1,0.2 0.2,0.4 0.2,0.6 0,0.2 0.1,0.4 0.1,0.6 0,0.6 -0.1,1.1 -0.4,1.6 -0.3,0.5 -0.6,0.9 -1.1,1.2 -0.5,0.3 -1,0.6 -1.6,0.7 -0.6,0.1 -1.2,0.2 -1.9,0.2 -1,-0.2 -2.2,-0.3 -3.8,-0.6 z"
   id="path20"
   inkscape:connector-curvature="0" />
		<path
   d="m 156.4,25 c 0.2,-1.6 0.3,-2.9 0.3,-4 0,-1.1 0.1,-2.5 0.2,-4.3 0.1,-1.8 0.1,-3 0.1,-3.5 v -0.8 c 1.5,0 3.2,0 5.3,0 1.9,0 3.6,0 5.1,0 v 0.3 c 0,0.1 0,0.3 0,0.8 l -0.1,1 c 0,0.2 0,0.4 0,0.7 -1.2,0 -2.2,-0.1 -3,-0.1 -0.9,0 -1.5,0 -1.8,0 -0.3,0 -0.8,0 -1.5,0 l -0.1,2.1 c 0.7,0 1.6,0 2.6,0 0.3,0 1.3,0 2.8,-0.1 -0.1,0.8 -0.1,1.7 -0.2,2.8 -1.1,0 -1.9,0 -2.5,0 -0.9,0 -1.8,0 -2.9,0.1 l -0.1,2.3 h 1.1 c 0.3,0 1,0 2,0 h 1.9 c 0.3,0 0.8,0 1.4,-0.1 -0.1,0.9 -0.1,1.9 -0.2,2.8 -1.5,0 -3.2,0 -5,0 h -4.1 z"
   id="path22"
   inkscape:connector-curvature="0" />
		<path
   d="m 184.3,21.8 c -0.1,0.5 -0.2,0.9 -0.3,1.4 l -0.3,1.5 c -1,0.2 -2.2,0.3 -3.5,0.4 -1.3,0.1 -2.6,0.1 -3.6,0.1 -0.9,0 -1.8,-0.1 -2.6,-0.2 -0.8,-0.1 -1.6,-0.4 -2.3,-0.8 -0.7,-0.4 -1.3,-0.9 -1.7,-1.4 -0.5,-0.6 -0.8,-1.2 -1,-1.8 -0.2,-0.6 -0.3,-1.3 -0.3,-2.1 0,-1 0.2,-1.9 0.5,-2.7 0.4,-0.8 0.9,-1.5 1.6,-2.1 0.7,-0.6 1.5,-1.1 2.5,-1.4 1,-0.3 2.1,-0.5 3.4,-0.5 1,0 1.9,0.1 2.8,0.4 0.9,0.3 1.7,0.7 2.4,1.3 0.7,0.6 1.2,1.2 1.5,2 0.4,0.8 0.5,1.5 0.5,2.3 0,0.4 0,0.9 -0.1,1.3 -0.1,0.4 -0.2,0.8 -0.4,1.2 -0.2,0.4 -0.4,0.7 -0.6,0.9 -0.2,0.3 -0.5,0.6 -0.8,0.9 0.6,-0.1 1,-0.1 1.3,-0.2 0.1,-0.3 0.5,-0.4 1,-0.5 z m -7.9,-6.9 c -0.7,0 -1.4,0.2 -2,0.5 -0.6,0.3 -1.1,0.8 -1.4,1.5 -0.3,0.6 -0.5,1.3 -0.5,1.9 0,0.7 0.2,1.3 0.5,1.9 0.3,0.5 0.7,0.9 1.3,1.2 0.6,0.3 1.2,0.4 1.8,0.4 0.7,0 1.3,-0.2 1.9,-0.5 0.6,-0.3 1,-0.8 1.3,-1.4 0.3,-0.6 0.5,-1.3 0.5,-2 0,-0.7 -0.1,-1.3 -0.4,-1.8 -0.3,-0.6 -0.7,-1 -1.2,-1.3 -0.5,-0.2 -1.1,-0.4 -1.8,-0.4 z"
   id="path24"
   inkscape:connector-curvature="0" />
	</g>
	
</g>
<g
   id="g76">
	<g
   id="g42">
		<path
   style="fill:#999999;"
   d="M-0.6,118.7c-0.1,1,0.7,1.9,1.7,1.9h3.4c0.9,0,1.6-0.6,1.7-1.5c0.1-0.5,0.2-1.2,0.4-1.9h33    c0.2,0.7,0.3,1.4,0.4,1.9c0.1,0.8,0.8,1.5,1.7,1.5h3.4c1,0,1.8-0.9,1.7-1.9c-0.5-4-2.7-13.5-12.6-21.9c-1.8,1.3-3.9,2.6-6.2,3.8    c0.7,0.5,1.2,1,1.8,1.5H16.3c2.2-1.9,5-3.8,8.3-5.4c18.2-9,21.5-23.1,22.1-28.2c0.1-1-0.7-1.9-1.7-1.9h-3.4    c-0.9,0-1.6,0.6-1.7,1.5c-0.1,0.5-0.2,1.2-0.4,1.9h-33c-0.1-0.8-0.2-1.5-0.3-2c-0.1-0.9-0.8-1.5-1.7-1.5H1.1c-1,0-1.8,0.9-1.7,1.9    c0.5,4.5,3.3,16.3,16.9,25.2C2.7,102.4,0,114.2-0.6,118.7z M23.1,89.7c-2.7-1.5-4.9-3-6.8-4.6h13.6C28,86.7,25.7,88.2,23.1,89.7z     M36.9,76.7c-0.6,1.1-1.4,2.2-2.2,3.3H11.4c-0.9-1.1-1.6-2.3-2.2-3.4L36.9,76.7z M9.2,110.3c0.6-1.1,1.3-2.2,2.2-3.4h23.2    c0.9,1.1,1.6,2.3,2.2,3.4H9.2z"
   id="path40" />
	</g>
	<g
   id="g64"
   transform="translate(0,10.85)">
		<path
   style="fill:#999999"
   d="m 55,89 c 0.1,-1.1 0.2,-2.1 0.3,-2.9 0.1,-0.9 0.1,-1.9 0.2,-3 0,-1.2 0.1,-2.4 0.1,-3.6 0,-1.3 0,-2.3 0,-3 0.8,0 1.4,0 1.9,0 0.5,0 1.1,0 1.8,0 0.7,0 1.4,0 2.1,0 0.8,0 1.5,0 2.1,0.1 0.5,0 0.9,0.1 1.3,0.3 0.4,0.1 0.7,0.3 1,0.5 0.3,0.2 0.5,0.4 0.6,0.7 0.1,0.3 0.3,0.5 0.4,0.8 0.1,0.3 0.1,0.7 0.1,1 0,0.4 -0.1,0.8 -0.2,1.2 -0.1,0.4 -0.3,0.7 -0.5,1 -0.2,0.3 -0.5,0.6 -0.9,0.8 -0.3,0.2 -0.8,0.5 -1.4,0.7 l 0.5,1.2 c 0.1,0.3 0.3,0.7 0.4,1 l 1.2,2.7 c 0.1,0.1 0.2,0.3 0.3,0.7 -1,0 -1.7,0 -2.1,0 -0.4,0 -1.2,0 -2.2,0 -0.1,-0.3 -0.3,-0.9 -0.5,-1.8 -0.1,-0.4 -0.2,-0.6 -0.3,-0.8 -0.1,-0.4 -0.4,-1.1 -0.7,-1.8 l -1,-2.6 c 0.3,0.1 0.7,0.1 1,0.1 0.5,0 0.9,-0.1 1.2,-0.2 0.4,-0.1 0.6,-0.3 0.8,-0.6 0.2,-0.3 0.3,-0.6 0.3,-0.9 0,-0.3 -0.1,-0.5 -0.2,-0.7 -0.1,-0.2 -0.4,-0.4 -0.7,-0.4 -0.3,-0.1 -0.8,-0.1 -1.4,-0.1 -0.2,0 -0.4,0 -0.7,0 -0.2,0 -0.5,0 -0.8,0 -0.1,1.3 -0.1,2.8 -0.2,4.6 0.2,1.4 0.2,3.2 0.1,5 -1,0 -1.7,0 -2,0 -0.3,-0.1 -1,-0.1 -1.9,0 z"
   id="path44"
   inkscape:connector-curvature="0" />
		<path
   style="fill:#999999"
   d="m 68.3,89 c 0.2,-1.6 0.3,-2.9 0.3,-4 0,-1.1 0.1,-2.5 0.2,-4.3 0.1,-1.8 0.1,-3 0.1,-3.5 v -0.8 c 1.5,0 3.2,0 5.3,0 1.9,0 3.6,0 5.1,0 v 0.3 c 0,0.1 0,0.3 0,0.8 l -0.1,1 c 0,0.2 0,0.4 0,0.7 C 78,79 77,79 76.2,79 c -0.9,0 -1.5,0 -1.8,0 -0.3,0 -0.8,0 -1.5,0 l -0.1,2.1 c 0.7,0 1.6,0 2.6,0 0.3,0 1.3,0 2.8,-0.1 -0.2,0.9 -0.2,1.9 -0.3,3 -1.1,0 -1.9,0 -2.5,0 -0.9,0 -1.8,0 -2.9,0.1 l -0.1,2.3 h 1.1 c 0.3,0 1,0 2,0 h 1.9 c 0.3,0 0.8,0 1.4,-0.1 0,0.7 -0.1,1.7 -0.1,2.7 -1.5,0 -3.2,0 -5,0 h -4.1 z"
   id="path46"
   inkscape:connector-curvature="0" />
		<path
   style="fill:#999999"
   d="m 91.8,85.9 c -0.1,0.4 -0.2,0.9 -0.3,1.5 -0.1,0.7 -0.2,1.2 -0.2,1.5 -1.3,0.2 -2.5,0.3 -3.5,0.3 -1,0 -1.9,-0.1 -2.8,-0.4 -0.9,-0.2 -1.7,-0.7 -2.4,-1.2 -0.7,-0.6 -1.2,-1.2 -1.5,-2 -0.3,-0.8 -0.5,-1.6 -0.5,-2.6 0,-1.1 0.2,-2.1 0.6,-3 0.4,-0.9 1,-1.6 1.8,-2.2 0.8,-0.6 1.6,-1 2.6,-1.3 0.9,-0.3 1.9,-0.4 2.9,-0.4 0.9,0 2,0.1 3.4,0.4 v 0.8 c 0,0.3 0,0.7 0.1,1.1 l 0.1,1.1 C 91.4,79.3 90.8,79.2 90.3,79.1 89.9,79 89.4,79 89.1,79 c -0.8,0 -1.6,0.2 -2.3,0.5 -0.7,0.3 -1.2,0.8 -1.6,1.5 -0.4,0.6 -0.6,1.3 -0.6,2.1 0,0.7 0.2,1.3 0.5,1.8 0.3,0.5 0.8,0.9 1.3,1.2 0.5,0.3 1.2,0.4 2,0.4 0.4,0 0.9,0 1.4,-0.1 0.6,-0.2 1.2,-0.3 2,-0.5 z"
   id="path48"
   inkscape:connector-curvature="0" />
		<path
   style="fill:#999999"
   d="m 101.2,76 c 1,0 1.9,0.1 2.9,0.4 0.9,0.3 1.7,0.7 2.4,1.3 0.7,0.6 1.2,1.3 1.5,2 0.3,0.8 0.5,1.6 0.5,2.6 0,1 -0.2,2 -0.6,2.9 -0.4,0.9 -0.9,1.6 -1.6,2.2 -0.7,0.6 -1.5,1 -2.5,1.3 -1,0.3 -2,0.4 -3.1,0.4 -1,0 -2,-0.1 -3,-0.4 -1,-0.3 -1.8,-0.7 -2.5,-1.3 -0.7,-0.6 -1.2,-1.3 -1.5,-2.1 -0.3,-0.8 -0.4,-1.6 -0.4,-2.5 0,-1.4 0.3,-2.5 0.9,-3.6 0.6,-1 1.6,-1.8 2.8,-2.4 1.3,-0.5 2.7,-0.8 4.2,-0.8 z m -0.1,2.8 c -0.7,0 -1.4,0.2 -1.9,0.5 -0.6,0.3 -1,0.8 -1.3,1.5 -0.3,0.6 -0.5,1.3 -0.5,2 0,0.7 0.1,1.3 0.4,1.8 0.3,0.5 0.7,1 1.3,1.3 0.6,0.3 1.2,0.5 1.8,0.5 0.7,0 1.3,-0.2 1.9,-0.5 0.6,-0.3 1,-0.8 1.3,-1.4 0.3,-0.6 0.5,-1.3 0.5,-2 0,-0.7 -0.1,-1.3 -0.4,-1.8 -0.3,-0.6 -0.7,-1 -1.2,-1.3 -0.7,-0.4 -1.3,-0.6 -1.9,-0.6 z"
   id="path50"
   inkscape:connector-curvature="0" />
		<path
   style="fill:#999999"
   d="m 109.8,89 0.2,-1.9 0.6,-6.5 0.3,-4.3 c 1.1,0 2,0 2.7,0 0.5,0 1.4,0 2.5,0 0.1,0.5 0.1,0.9 0.2,1.2 0.1,0.3 0.2,0.8 0.4,1.6 0.2,0.8 0.4,1.5 0.5,2.1 0.1,0.6 0.3,1.6 0.6,3 0.3,-1 0.5,-1.8 0.7,-2.5 0.2,-0.7 0.5,-1.5 0.8,-2.4 0.3,-0.9 0.5,-1.5 0.6,-1.7 0.1,-0.3 0.2,-0.7 0.4,-1.3 0.9,0 1.8,0 2.7,0 0.6,0 1.4,0 2.5,0 -0.1,2.1 -0.2,3.9 -0.2,5.4 -0.1,2.9 -0.1,4.9 -0.1,6 0,0.2 0,0.6 0,1.2 -0.8,0 -1.4,0 -1.7,0 -0.5,0 -1.1,0 -1.8,0 0,-0.6 0.1,-1.9 0.2,-4 0.1,-2.1 0.1,-3.4 0.1,-4 0,-0.3 0,-0.6 0,-1.1 l -1.2,3.8 -1.7,5.3 c -0.8,0 -1.4,0 -1.7,0 -0.4,0 -1,0 -1.8,0 l -1.1,-5.1 -0.7,-2.7 c 0,-0.1 -0.1,-0.2 -0.1,-0.4 0,-0.2 -0.1,-0.4 -0.1,-0.8 l -0.2,2.6 -0.3,5.3 V 89 c -0.9,0 -1.4,0 -1.6,0 -0.3,-0.1 -0.9,-0.1 -1.7,0 z"
   id="path52"
   inkscape:connector-curvature="0" />
		<path
   style="fill:#999999"
   d="m 127.6,89 c 0.1,-1.4 0.2,-2.4 0.3,-3.2 0.1,-1.1 0.1,-2.5 0.2,-4.4 0.1,-1.9 0.1,-3.2 0.1,-3.9 0,-0.3 0,-0.7 0,-1.2 0.8,0 1.5,0 2,0 0.7,0 1.5,0 2.4,0 0.9,0 1.7,0 2.3,0 0.8,0 1.3,0 1.7,0.1 0.4,0.1 0.8,0.2 1.1,0.3 0.3,0.1 0.6,0.3 0.8,0.5 0.2,0.2 0.4,0.5 0.6,0.9 0.2,0.4 0.2,0.8 0.2,1.3 0,0.4 0,0.7 -0.1,1 -0.1,0.3 -0.2,0.6 -0.4,0.9 -0.2,0.3 -0.3,0.5 -0.6,0.6 -0.2,0.2 -0.4,0.3 -0.6,0.4 -0.2,0.1 -0.5,0.2 -0.8,0.3 0.3,0.1 0.6,0.1 0.8,0.2 0.2,0.1 0.4,0.2 0.6,0.3 0.2,0.2 0.4,0.4 0.6,0.6 0.2,0.2 0.3,0.5 0.4,0.8 0.1,0.3 0.1,0.6 0.1,1 0,0.5 -0.1,0.9 -0.2,1.3 -0.2,0.4 -0.4,0.8 -0.6,1.1 -0.2,0.3 -0.5,0.5 -0.9,0.6 -0.4,0.2 -0.8,0.3 -1.2,0.4 -0.3,0 -0.9,0.1 -1.8,0.1 -0.9,0 -1.8,0 -2.7,0 h -2.4 z m 3.9,-2.6 h 1.8 c 0.5,0 0.8,0 1,-0.1 0.3,-0.1 0.5,-0.2 0.6,-0.3 0.1,-0.1 0.3,-0.3 0.3,-0.5 0.1,-0.2 0.1,-0.4 0.1,-0.6 0,-0.2 0,-0.4 -0.1,-0.5 -0.1,-0.2 -0.2,-0.3 -0.3,-0.4 -0.1,-0.1 -0.3,-0.2 -0.5,-0.2 -0.2,0 -0.5,-0.1 -0.9,-0.1 h -2 z m 0.2,-5.2 h 1.3 c 0.4,0 0.7,0 0.9,0 0.2,0 0.4,-0.1 0.5,-0.1 0.2,-0.1 0.3,-0.1 0.5,-0.3 0.2,-0.2 0.2,-0.3 0.3,-0.4 0.1,-0.2 0.1,-0.3 0.1,-0.5 0,-0.2 -0.1,-0.4 -0.2,-0.6 -0.1,-0.2 -0.3,-0.3 -0.5,-0.4 -0.2,-0.1 -0.6,-0.1 -1.1,-0.1 h -1.7 z"
   id="path54"
   inkscape:connector-curvature="0" />
		<path
   style="fill:#999999"
   d="m 140.1,85.3 c 0.1,-0.9 0.1,-1.8 0.1,-2.6 0.9,0 1.7,0 2.5,0 0.8,0 1.6,0 2.5,0 -0.1,0.8 -0.1,1.7 -0.1,2.6 -0.9,0 -1.7,0 -2.5,0 -0.8,0 -1.7,0 -2.5,0 z"
   id="path56"
   inkscape:connector-curvature="0" />
		<path
   style="fill:#999999"
   d="m 146,88.8 c -0.1,-1.3 -0.2,-2.4 -0.3,-3.2 0.7,0.3 1.3,0.5 1.9,0.6 0.5,0.1 1,0.2 1.4,0.2 0.5,0 1,-0.1 1.3,-0.2 0.3,-0.2 0.5,-0.4 0.5,-0.7 0,-0.1 0,-0.2 0,-0.3 0,-0.1 -0.1,-0.2 -0.2,-0.3 -0.1,-0.1 -0.2,-0.3 -0.4,-0.4 L 148.5,83 c -0.4,-0.3 -0.7,-0.6 -0.9,-0.8 -0.3,-0.3 -0.6,-0.6 -0.8,-0.9 -0.2,-0.3 -0.3,-0.5 -0.4,-0.8 -0.1,-0.3 -0.1,-0.6 -0.1,-0.9 0,-0.4 0.1,-0.7 0.2,-1.1 0.1,-0.4 0.3,-0.7 0.6,-1 0.3,-0.3 0.6,-0.6 1.1,-0.8 0.4,-0.2 0.9,-0.4 1.4,-0.5 0.5,-0.1 1,-0.1 1.5,-0.1 1,0 2.2,0.1 3.4,0.4 0,0.4 0,0.8 0.1,1.2 0,0.4 0.1,1 0.2,1.9 -0.6,-0.2 -1.1,-0.4 -1.6,-0.5 C 152.7,79 152.3,79 152,79 c -0.5,0 -0.9,0.1 -1.2,0.3 -0.3,0.2 -0.5,0.4 -0.5,0.7 0,0.1 0,0.2 0.1,0.4 0,0.1 0.1,0.3 0.3,0.4 0.1,0.2 0.3,0.3 0.5,0.5 0.2,0.2 0.6,0.5 1,0.8 l 0.7,0.5 c 0.2,0.2 0.4,0.4 0.6,0.6 0.2,0.2 0.4,0.5 0.6,0.7 0.2,0.2 0.3,0.4 0.4,0.6 0.1,0.2 0.2,0.4 0.2,0.6 0,0.2 0.1,0.4 0.1,0.6 0,0.6 -0.1,1.1 -0.4,1.6 -0.3,0.5 -0.6,0.9 -1.1,1.2 -0.5,0.3 -1,0.6 -1.6,0.7 -0.6,0.1 -1.2,0.2 -1.9,0.2 -1,-0.2 -2.3,-0.4 -3.8,-0.6 z"
   id="path58"
   inkscape:connector-curvature="0" />
		<path
   style="fill:#999999"
   d="m 156.6,89 c 0.2,-1.6 0.3,-2.9 0.3,-4 0,-1.1 0.1,-2.5 0.2,-4.3 0.1,-1.8 0.1,-3 0.1,-3.5 v -0.8 c 1.5,0 3.2,0 5.3,0 1.9,0 3.6,0 5.1,0 v 0.3 c 0,0.1 0,0.3 0,0.8 l -0.1,1 c 0,0.2 0,0.4 0,0.7 -1.2,0 -2.2,-0.1 -3,-0.1 -0.9,0 -1.5,0 -1.8,0 -0.3,0 -0.8,0 -1.5,0 l -0.1,2.1 c 0.7,0 1.6,0 2.6,0 0.3,0 1.3,0 2.8,-0.1 -0.1,0.8 -0.1,1.7 -0.2,2.8 -1.1,0 -1.9,0 -2.5,0 -0.9,0 -1.8,0 -2.9,0.1 l -0.1,2.3 h 1.1 c 0.3,0 1,0 2,0 h 1.9 c 0.3,0 0.8,0 1.4,-0.1 -0.2,0.8 -0.2,1.8 -0.3,2.8 -1.5,0 -3.2,0 -5,0 h -4.1 z"
   id="path60"
   inkscape:connector-curvature="0" />
		<path
   style="fill:#999999"
   d="m 184.5,85.8 c -0.1,0.5 -0.2,0.9 -0.3,1.4 l -0.3,1.5 c -1,0.2 -2.2,0.3 -3.5,0.4 -1.3,0.1 -2.6,0.1 -3.6,0.1 -0.9,0 -1.8,-0.1 -2.6,-0.2 -0.8,-0.1 -1.6,-0.4 -2.3,-0.8 -0.7,-0.4 -1.3,-0.9 -1.7,-1.4 -0.5,-0.6 -0.8,-1.2 -1,-1.8 -0.2,-0.6 -0.3,-1.3 -0.3,-2.1 0,-1 0.2,-1.9 0.5,-2.7 0.4,-0.8 0.9,-1.5 1.6,-2.1 0.7,-0.6 1.5,-1.1 2.5,-1.4 1,-0.3 2.1,-0.5 3.4,-0.5 1,0 1.9,0.1 2.8,0.4 0.9,0.3 1.7,0.7 2.4,1.3 0.7,0.6 1.2,1.2 1.5,2 0.4,0.8 0.5,1.5 0.5,2.3 0,0.4 0,0.9 -0.1,1.3 -0.1,0.4 -0.2,0.8 -0.4,1.2 -0.2,0.4 -0.4,0.7 -0.6,0.9 -0.2,0.3 -0.5,0.6 -0.8,0.9 0.6,-0.1 1,-0.1 1.3,-0.2 0.2,-0.3 0.5,-0.4 1,-0.5 z m -7.9,-6.9 c -0.7,0 -1.4,0.2 -2,0.5 -0.6,0.3 -1.1,0.8 -1.4,1.5 -0.3,0.6 -0.5,1.3 -0.5,1.9 0,0.7 0.2,1.3 0.5,1.9 0.3,0.5 0.7,0.9 1.3,1.2 0.6,0.3 1.2,0.4 1.8,0.4 0.7,0 1.3,-0.2 1.9,-0.5 0.6,-0.3 1,-0.8 1.3,-1.4 0.3,-0.6 0.5,-1.3 0.5,-2 0,-0.7 -0.1,-1.3 -0.4,-1.8 -0.3,-0.6 -0.7,-1 -1.2,-1.3 -0.5,-0.3 -1.1,-0.4 -1.8,-0.4 z"
   id="path62"
   inkscape:connector-curvature="0" />
	</g>
	<g
   id="g74">
		
		
		
		
	</g>
</g>
<g
   id="g114">
	<g
   id="g80">
		<path
   style="fill:#FFFFFF;"
   d="M-0.8,183.2c-0.1,1,0.7,1.9,1.7,1.9h3.4c0.9,0,1.6-0.6,1.7-1.5c0.1-0.5,0.2-1.2,0.4-1.9h33    c0.2,0.7,0.3,1.4,0.4,1.9c0.1,0.8,0.8,1.5,1.7,1.5h3.4c1,0,1.8-0.9,1.7-1.9c-0.5-4-2.7-13.5-12.6-21.9c-1.8,1.3-3.9,2.6-6.2,3.8    c0.7,0.5,1.2,1,1.8,1.5H16.1c2.2-1.9,5-3.8,8.3-5.4c18.2-9,21.5-23.1,22.1-28.2c0.1-1-0.7-1.9-1.7-1.9h-3.4    c-0.9,0-1.6,0.6-1.7,1.5c-0.1,0.5-0.2,1.2-0.4,1.9h-33c-0.1-0.8-0.2-1.5-0.3-2c-0.1-0.9-0.8-1.5-1.7-1.5H0.9c-1,0-1.8,0.9-1.7,1.9    c0.5,4.5,3.3,16.3,16.9,25.2C2.5,167-0.2,178.7-0.8,183.2z M22.9,154.2c-2.7-1.5-4.9-3-6.8-4.6h13.6    C27.8,151.2,25.5,152.8,22.9,154.2z M36.7,141.2c-0.6,1.1-1.4,2.2-2.2,3.3H11.2c-0.9-1.1-1.6-2.3-2.2-3.4L36.7,141.2z M9,174.9    c0.6-1.1,1.3-2.2,2.2-3.4h23.2c0.9,1.1,1.6,2.3,2.2,3.4H9z"
   id="path78" />
	</g>
	<g
   id="g102"
   transform="translate(0,10.8)">
		<path
   style="fill:#ffffff"
   d="m 54.8,153.5 c 0.1,-1.1 0.2,-2.1 0.3,-2.9 0.1,-0.9 0.1,-1.9 0.2,-3 0,-1.2 0.1,-2.4 0.1,-3.6 0,-1.3 0,-2.3 0,-3 0.8,0 1.4,0 1.9,0 0.5,0 1.1,0 1.8,0 0.7,0 1.4,0 2.1,0 0.8,0 1.5,0 2.1,0.1 0.5,0 0.9,0.1 1.3,0.3 0.4,0.1 0.7,0.3 1,0.5 0.3,0.2 0.5,0.4 0.6,0.7 0.2,0.2 0.3,0.5 0.4,0.8 0.1,0.3 0.1,0.7 0.1,1 0,0.4 -0.1,0.8 -0.2,1.2 -0.1,0.4 -0.3,0.7 -0.5,1 -0.2,0.3 -0.5,0.6 -0.9,0.8 -0.3,0.2 -0.8,0.5 -1.4,0.7 l 0.5,1.2 c 0.1,0.3 0.3,0.7 0.4,1 l 1.2,2.7 c 0.1,0.1 0.2,0.3 0.3,0.7 -1,0 -1.7,0 -2.1,0 -0.4,0 -1.2,0 -2.2,0 -0.1,-0.3 -0.3,-0.9 -0.5,-1.8 -0.1,-0.4 -0.2,-0.6 -0.3,-0.8 -0.1,-0.4 -0.4,-1.1 -0.7,-1.8 l -1,-2.6 c 0.3,0.1 0.7,0.1 1,0.1 0.5,0 0.9,-0.1 1.2,-0.2 0.4,-0.1 0.6,-0.3 0.8,-0.6 0.2,-0.3 0.3,-0.6 0.3,-0.9 0,-0.3 -0.1,-0.5 -0.2,-0.7 -0.1,-0.2 -0.4,-0.3 -0.7,-0.4 -0.3,-0.1 -0.8,-0.1 -1.4,-0.1 -0.2,0 -0.4,0 -0.7,0 -0.2,0 -0.5,0 -0.8,0 -0.1,1.3 -0.1,2.8 -0.2,4.6 -0.1,1.8 -0.1,3.6 -0.1,5.4 -1,0 -1.7,0 -2,0 -0.1,-0.5 -0.8,-0.4 -1.7,-0.4 z"
   id="path82"
   inkscape:connector-curvature="0" />
		<path
   style="fill:#ffffff"
   d="m 68.1,153.5 c 0.2,-1.6 0.3,-2.9 0.3,-4 0,-1.1 0.1,-2.5 0.2,-4.3 0.1,-1.8 0.1,-3 0.1,-3.5 v -0.8 c 1.5,0 3.2,0 5.3,0 1.9,0 3.6,0 5.1,0 v 0.3 c 0,0.1 0,0.3 0,0.8 l -0.1,1 c 0,0.2 0,0.4 0,0.7 -1.2,0 -2.2,-0.1 -3,-0.1 -0.9,0 -1.5,0 -1.8,0 -0.3,0 -0.8,0 -1.5,0 l -0.1,2.1 c 0.7,0 1.6,0 2.6,0 0.3,0 1.3,0 2.8,-0.1 -0.1,0.8 -0.1,1.7 -0.2,2.8 -1.1,0 -1.9,0 -2.5,0 -0.9,0 -1.8,0 -2.9,0.1 l -0.1,2.3 h 1.1 c 0.3,0 1,0 2,0 h 1.9 c 0.3,0 0.8,0 1.4,-0.1 -0.1,0.9 -0.1,1.9 -0.2,2.8 -1.5,0 -3.2,0 -5,0 h -4.1 z"
   id="path84"
   inkscape:connector-curvature="0" />
		<path
   style="fill:#ffffff"
   d="m 91.6,150.4 c -0.1,0.4 -0.2,0.9 -0.3,1.5 -0.1,0.7 -0.2,1.2 -0.2,1.5 -1.3,0.2 -2.5,0.3 -3.5,0.3 -1,0 -1.9,-0.1 -2.8,-0.4 -0.9,-0.2 -1.7,-0.7 -2.4,-1.2 -0.7,-0.6 -1.2,-1.2 -1.5,-2 -0.3,-0.8 -0.5,-1.6 -0.5,-2.6 0,-1.1 0.2,-2.1 0.6,-3 0.4,-0.9 1,-1.6 1.8,-2.2 0.8,-0.6 1.6,-1 2.6,-1.3 0.9,-0.3 1.9,-0.4 2.9,-0.4 0.9,0 2,0.1 3.4,0.4 v 0.8 c 0,0.3 0,0.7 0.1,1.1 l 0.1,1.1 c -0.7,-0.2 -1.3,-0.3 -1.8,-0.4 -0.4,-0.1 -0.9,-0.1 -1.2,-0.1 -0.8,0 -1.6,0.2 -2.3,0.5 -0.7,0.3 -1.2,0.8 -1.6,1.5 -0.4,0.6 -0.6,1.3 -0.6,2.1 0,0.7 0.2,1.3 0.5,1.8 0.3,0.5 0.8,0.9 1.3,1.2 0.5,0.3 1.2,0.4 2,0.4 0.4,0 0.9,0 1.4,-0.1 0.6,-0.2 1.2,-0.3 2,-0.5 z"
   id="path86"
   inkscape:connector-curvature="0" />
		<path
   style="fill:#ffffff"
   d="m 101,140.6 c 1,0 1.9,0.1 2.9,0.4 0.9,0.3 1.7,0.7 2.4,1.3 0.7,0.6 1.2,1.3 1.5,2 0.3,0.8 0.5,1.6 0.5,2.6 0,1 -0.2,2 -0.6,2.9 -0.4,0.9 -0.9,1.6 -1.6,2.2 -0.7,0.6 -1.5,1 -2.5,1.3 -1,0.3 -2,0.4 -3.1,0.4 -1,0 -2,-0.1 -3,-0.4 -1,-0.3 -1.8,-0.7 -2.5,-1.3 -0.7,-0.6 -1.2,-1.3 -1.5,-2.1 -0.3,-0.8 -0.4,-1.6 -0.4,-2.5 0,-1.4 0.3,-2.5 0.9,-3.6 0.6,-1 1.6,-1.8 2.8,-2.4 1.3,-0.6 2.7,-0.8 4.2,-0.8 z m -0.1,2.8 c -0.7,0 -1.4,0.2 -1.9,0.5 -0.5,0.3 -1,0.8 -1.3,1.5 -0.3,0.6 -0.5,1.3 -0.5,2 0,0.7 0.1,1.3 0.4,1.8 0.3,0.5 0.7,1 1.3,1.3 0.6,0.3 1.2,0.5 1.8,0.5 0.7,0 1.3,-0.2 1.9,-0.5 0.6,-0.3 1,-0.8 1.3,-1.4 0.3,-0.6 0.5,-1.3 0.5,-2 0,-0.7 -0.1,-1.3 -0.4,-1.8 -0.3,-0.6 -0.7,-1 -1.2,-1.3 -0.7,-0.5 -1.3,-0.6 -1.9,-0.6 z"
   id="path88"
   inkscape:connector-curvature="0" />
		<path
   style="fill:#ffffff"
   d="m 109.6,153.5 0.2,-1.9 0.6,-6.5 0.3,-4.3 c 1.1,0 2,0 2.7,0 0.5,0 1.4,0 2.5,0 0.1,0.5 0.1,0.9 0.2,1.2 0.1,0.3 0.2,0.8 0.4,1.6 0.2,0.8 0.4,1.5 0.5,2.1 0.1,0.6 0.3,1.6 0.6,3 0.3,-1 0.5,-1.8 0.7,-2.5 0.2,-0.7 0.5,-1.5 0.8,-2.4 0.3,-0.9 0.5,-1.5 0.6,-1.7 0.1,-0.3 0.2,-0.7 0.4,-1.3 0.9,0 1.8,0 2.7,0 0.6,0 1.4,0 2.5,0 -0.1,2.1 -0.2,3.9 -0.2,5.4 -0.1,2.9 -0.1,4.9 -0.1,6 0,0.2 0,0.6 0,1.2 -0.8,0 -1.4,0 -1.7,0 -0.5,0 -1.1,0 -1.8,0 0,-0.6 0.1,-1.9 0.2,-4 0.1,-2.1 0.1,-3.4 0.1,-4 0,-0.3 0,-0.6 0,-1.1 l -1.2,3.8 -1.7,5.3 c -0.8,0 -1.4,0 -1.7,0 -0.4,0 -1,0 -1.8,0 l -1.1,-5.1 -0.7,-2.7 c 0,-0.1 -0.1,-0.2 -0.1,-0.4 0,-0.2 -0.1,-0.4 -0.1,-0.8 l -0.2,2.6 -0.3,5.3 v 1.2 c -0.9,0 -1.4,0 -1.6,0 -0.3,-0.1 -0.9,0 -1.7,0 z"
   id="path90"
   inkscape:connector-curvature="0" />
		<path
   style="fill:#ffffff"
   d="m 127.4,153.5 c 0.1,-1.4 0.2,-2.4 0.3,-3.2 0.1,-1.1 0.1,-2.5 0.2,-4.4 0.1,-1.9 0.1,-3.2 0.1,-3.9 0,-0.3 0,-0.7 0,-1.2 0.8,0 1.5,0 2,0 0.7,0 1.5,0 2.4,0 0.9,0 1.7,0 2.3,0 0.8,0 1.3,0 1.7,0.1 0.4,0.1 0.8,0.2 1.1,0.3 0.3,0.1 0.6,0.3 0.8,0.5 0.2,0.2 0.4,0.5 0.6,0.9 0.2,0.4 0.2,0.8 0.2,1.3 0,0.4 0,0.7 -0.1,1 -0.1,0.3 -0.2,0.6 -0.4,0.9 -0.2,0.2 -0.3,0.5 -0.6,0.6 -0.2,0.2 -0.4,0.3 -0.6,0.4 -0.2,0.1 -0.5,0.2 -0.8,0.3 0.3,0.1 0.6,0.1 0.8,0.2 0.2,0.1 0.4,0.2 0.6,0.3 0.2,0.2 0.4,0.4 0.6,0.6 0.2,0.2 0.3,0.5 0.4,0.8 0.1,0.3 0.1,0.6 0.1,1 0,0.5 -0.1,0.9 -0.2,1.3 -0.2,0.4 -0.4,0.8 -0.6,1.1 -0.2,0.3 -0.5,0.5 -0.9,0.6 -0.4,0.2 -0.8,0.3 -1.2,0.4 -0.3,0.1 -0.9,0.1 -1.8,0.1 -0.9,0 -1.8,0 -2.7,0 h -2.4 z m 3.9,-2.6 h 1.8 c 0.5,0 0.8,0 1,-0.1 0.3,-0.1 0.5,-0.2 0.6,-0.3 0.1,-0.1 0.3,-0.3 0.3,-0.5 0.1,-0.2 0.1,-0.4 0.1,-0.6 0,-0.2 0,-0.4 -0.1,-0.5 -0.1,-0.2 -0.2,-0.3 -0.3,-0.4 -0.1,-0.1 -0.3,-0.2 -0.5,-0.2 -0.2,0 -0.5,-0.1 -0.9,-0.1 h -2 z m 0.2,-5.2 h 1.3 c 0.4,0 0.7,0 0.9,0 0.2,0 0.4,-0.1 0.5,-0.1 0.2,-0.1 0.3,-0.1 0.5,-0.3 0.2,-0.2 0.2,-0.3 0.3,-0.4 0.1,-0.2 0.1,-0.3 0.1,-0.5 0,-0.2 -0.1,-0.4 -0.2,-0.6 -0.1,-0.2 -0.3,-0.3 -0.5,-0.4 -0.2,-0.1 -0.6,-0.1 -1.1,-0.1 h -1.7 z"
   id="path92"
   inkscape:connector-curvature="0" />
		<path
   style="fill:#ffffff"
   d="m 139.8,149.8 c 0.1,-0.9 0.1,-1.8 0.1,-2.6 0.9,0 1.7,0 2.5,0 0.8,0 1.6,0 2.5,0 -0.1,0.8 -0.1,1.7 -0.1,2.6 -0.9,0 -1.7,0 -2.5,0 -0.8,0 -1.6,0 -2.5,0 z"
   id="path94"
   inkscape:connector-curvature="0" />
		<path
   style="fill:#ffffff"
   d="m 145.8,153.3 c -0.1,-1.3 -0.2,-2.4 -0.3,-3.2 0.7,0.3 1.3,0.5 1.9,0.6 0.6,0.1 1,0.2 1.4,0.2 0.5,0 1,-0.1 1.3,-0.2 0.3,-0.2 0.5,-0.4 0.5,-0.7 0,-0.1 0,-0.2 0,-0.3 0,-0.1 -0.1,-0.2 -0.2,-0.3 -0.1,-0.1 -0.2,-0.3 -0.4,-0.4 l -1.7,-1.5 c -0.4,-0.3 -0.7,-0.6 -0.9,-0.8 -0.3,-0.3 -0.6,-0.6 -0.8,-0.9 -0.2,-0.3 -0.3,-0.5 -0.4,-0.8 -0.1,-0.3 -0.1,-0.6 -0.1,-0.9 0,-0.4 0.1,-0.7 0.2,-1.1 0.1,-0.4 0.3,-0.7 0.6,-1 0.3,-0.3 0.6,-0.6 1.1,-0.8 0.5,-0.2 0.9,-0.4 1.4,-0.5 0.5,-0.1 1,-0.1 1.5,-0.1 1,0 2.2,0.1 3.4,0.4 0,0.4 0,0.8 0.1,1.2 0.1,0.4 0.1,1 0.2,1.9 -0.6,-0.2 -1.1,-0.4 -1.6,-0.5 -0.5,-0.1 -0.9,-0.1 -1.2,-0.1 -0.5,0 -0.9,0.1 -1.2,0.3 -0.3,0.2 -0.5,0.4 -0.5,0.7 0,0.1 0,0.2 0.1,0.4 0,0.1 0.1,0.3 0.3,0.4 0.1,0.2 0.3,0.3 0.5,0.5 0.2,0.2 0.6,0.5 1,0.8 l 0.7,0.5 c 0.2,0.2 0.4,0.4 0.6,0.6 0.2,0.2 0.4,0.5 0.6,0.7 0.2,0.2 0.3,0.4 0.4,0.6 0.1,0.2 0.2,0.4 0.2,0.6 0,0.2 0.1,0.4 0.1,0.6 0,0.6 -0.1,1.1 -0.4,1.6 -0.3,0.5 -0.6,0.9 -1.1,1.2 -0.5,0.3 -1,0.6 -1.6,0.7 -0.6,0.1 -1.2,0.2 -1.9,0.2 -1,-0.2 -2.3,-0.3 -3.8,-0.6 z"
   id="path96"
   inkscape:connector-curvature="0" />
		<path
   style="fill:#ffffff"
   d="m 156.4,153.5 c 0.2,-1.6 0.3,-2.9 0.3,-4 0,-1.1 0.1,-2.5 0.2,-4.3 0.1,-1.8 0.1,-3 0.1,-3.5 v -0.8 c 1.5,0 3.2,0 5.3,0 1.9,0 3.6,0 5.1,0 v 0.3 c 0,0.1 0,0.3 0,0.8 l -0.1,1 c 0,0.2 0,0.4 0,0.7 -1.2,0 -2.2,-0.1 -3,-0.1 -0.9,0 -1.5,0 -1.8,0 -0.3,0 -0.8,0 -1.5,0 l -0.1,2.1 c 0.7,0 1.6,0 2.6,0 0.3,0 1.3,0 2.8,-0.1 -0.1,0.8 -0.1,1.7 -0.2,2.8 -1.1,0 -1.9,0 -2.5,0 -0.9,0 -1.8,0 -2.9,0.1 l -0.1,2.3 h 1.1 c 0.3,0 1,0 2,0 h 1.9 c 0.3,0 0.8,0 1.4,-0.1 -0.1,0.9 -0.1,1.9 -0.2,2.8 -1.5,0 -3.2,0 -5,0 h -4.1 z"
   id="path98"
   inkscape:connector-curvature="0" />
		<path
   style="fill:#ffffff"
   d="m 184.3,150.3 c -0.1,0.5 -0.2,0.9 -0.3,1.4 l -0.3,1.5 c -1,0.2 -2.2,0.3 -3.5,0.4 -1.3,0.1 -2.6,0.1 -3.6,0.1 -0.9,0 -1.8,-0.1 -2.6,-0.2 -0.8,-0.1 -1.6,-0.4 -2.3,-0.8 -0.7,-0.4 -1.3,-0.9 -1.7,-1.4 -0.5,-0.6 -0.8,-1.2 -1,-1.8 -0.2,-0.6 -0.3,-1.3 -0.3,-2 0,-1 0.2,-1.9 0.5,-2.7 0.4,-0.8 0.9,-1.5 1.6,-2.1 0.7,-0.6 1.5,-1.1 2.5,-1.4 1,-0.3 2.1,-0.5 3.4,-0.5 1,0 1.9,0.1 2.8,0.4 0.9,0.3 1.7,0.7 2.4,1.3 0.7,0.6 1.2,1.2 1.5,2 0.4,0.8 0.5,1.5 0.5,2.3 0,0.4 0,0.9 -0.1,1.3 -0.1,0.4 -0.2,0.8 -0.4,1.2 -0.2,0.4 -0.4,0.7 -0.6,0.9 -0.2,0.3 -0.5,0.6 -0.8,0.9 0.6,-0.1 1,-0.1 1.3,-0.2 0.2,-0.4 0.5,-0.5 1,-0.6 z m -7.9,-6.9 c -0.7,0 -1.4,0.2 -2,0.5 -0.6,0.3 -1.1,0.8 -1.4,1.5 -0.3,0.7 -0.5,1.3 -0.5,1.9 0,0.7 0.2,1.3 0.5,1.9 0.3,0.5 0.7,0.9 1.3,1.2 0.6,0.3 1.2,0.4 1.8,0.4 0.7,0 1.3,-0.2 1.9,-0.5 0.6,-0.3 1,-0.8 1.3,-1.4 0.3,-0.6 0.5,-1.3 0.5,-2 0,-0.7 -0.1,-1.3 -0.4,-1.8 -0.3,-0.6 -0.7,-1 -1.2,-1.3 -0.5,-0.3 -1.1,-0.4 -1.8,-0.4 z"
   id="path100"
   inkscape:connector-curvature="0" />
	</g>
	
</g>
</svg>
