<?xml version="1.0" encoding="utf-8"?>
<!-- Generator: Adobe Illustrator 26.3.1, SVG Export Plug-In . SVG Version: 6.00 Build 0)  -->
<svg version="1.1" baseProfile="basic" id="Layer_1"
	 xmlns="http://www.w3.org/2000/svg" xmlns:xlink="http://www.w3.org/1999/xlink"  x="0px" y="0px"
	 width="185px" height="188px" viewBox="0 0 185 188" enable-background="new 0 0 185 188" xml:space="preserve">
<g>
	<g>
		<path d="M-0.8,54.7c-0.1,1,0.7,1.9,1.7,1.9h3.4c0.9,0,1.6-0.6,1.7-1.5c0.1-0.5,0.2-1.2,0.4-1.9h33c0.2,0.7,0.3,1.4,0.4,1.9
			c0.1,0.8,0.8,1.5,1.7,1.5h3.4c1,0,1.8-0.9,1.7-1.9c-0.5-4-2.7-13.5-12.6-21.9c-1.8,1.3-3.9,2.6-6.2,3.8c0.7,0.5,1.2,1,1.8,1.5
			H16.1c2.2-1.9,5-3.8,8.3-5.4c18.2-9,21.5-23.1,22.1-28.2c0.1-1-0.7-1.9-1.7-1.9h-3.4c-0.9,0-1.6,0.6-1.7,1.5
			c-0.1,0.5-0.2,1.2-0.4,1.9h-33C6.2,5.2,6.1,4.5,6,4C5.9,3.1,5.2,2.5,4.3,2.5H0.9c-1,0-1.8,0.9-1.7,1.9c0.5,4.5,3.3,16.3,16.9,25.2
			C2.5,38.5-0.2,50.2-0.8,54.7z M22.9,25.7c-2.7-1.5-4.9-3-6.8-4.6h13.6C27.8,22.7,25.5,24.3,22.9,25.7z M36.7,12.7
			c-0.6,1.1-1.4,2.2-2.2,3.3H11.2c-0.9-1.1-1.6-2.3-2.2-3.4L36.7,12.7z M9,46.4c0.6-1.1,1.3-2.2,2.2-3.4h23.2
			c0.9,1.1,1.6,2.3,2.2,3.4H9z"/>
	</g>
	<g>
		<path d="M54.8,25c0.1-1.1,0.2-2.1,0.3-2.9c0.1-0.9,0.1-1.9,0.2-3c0-1.2,0.1-2.4,0.1-3.6c0-1.3,0-2.3,0-3c0.8,0,1.4,0,1.9,0
			c0.5,0,1.1,0,1.8,0c0.7,0,1.4,0,2.1,0c0.8,0,1.5,0,2.1,0.1c0.5,0,0.9,0.1,1.3,0.3c0.4,0.1,0.7,0.3,1,0.5c0.3,0.2,0.5,0.4,0.6,0.7
			s0.3,0.5,0.4,0.8c0.1,0.3,0.1,0.7,0.1,1c0,0.4-0.1,0.8-0.2,1.2c-0.1,0.4-0.3,0.7-0.5,1c-0.2,0.3-0.5,0.6-0.9,0.8
			c-0.3,0.2-0.8,0.5-1.4,0.7l0.5,1.2c0.1,0.3,0.3,0.7,0.4,1l1.2,2.7c0.1,0.1,0.2,0.3,0.3,0.7c-1,0-1.7,0-2.1,0c-0.4,0-1.2,0-2.2,0
			c-0.1-0.3-0.3-0.9-0.5-1.8c-0.1-0.4-0.2-0.6-0.3-0.8c-0.1-0.4-0.4-1.1-0.7-1.8l-1-2.6c0.3,0.1,0.7,0.1,1,0.1
			c0.5,0,0.9-0.1,1.2-0.2c0.4-0.1,0.6-0.3,0.8-0.6c0.2-0.3,0.3-0.6,0.3-0.9c0-0.3-0.1-0.5-0.2-0.7c-0.1-0.2-0.4-0.4-0.7-0.4
			C61.6,15,61.2,15,60.5,15c-0.2,0-0.4,0-0.7,0c-0.2,0-0.5,0-0.8,0c-0.1,1.3-0.1,2.8-0.2,4.6c-0.1,1.8-0.1,3.6-0.1,5.4
			c-1,0-1.7,0-2,0C56.3,25,55.7,25,54.8,25z"/>
		<path d="M68.1,25c0.2-1.6,0.3-2.9,0.3-4s0.1-2.5,0.2-4.3c0.1-1.8,0.1-3,0.1-3.5l0-0.8c1.5,0,3.2,0,5.3,0c1.9,0,3.6,0,5.1,0l0,0.3
			c0,0.1,0,0.3,0,0.8l-0.1,1c0,0.2,0,0.4,0,0.7c-1.2,0-2.2-0.1-3-0.1c-0.9,0-1.5,0-1.8,0c-0.3,0-0.8,0-1.5,0l-0.1,2.1
			c0.7,0,1.6,0,2.6,0c0.3,0,1.3,0,2.8-0.1c-0.1,0.8-0.1,1.7-0.2,2.8c-1.1,0-1.9,0-2.5,0c-0.9,0-1.8,0-2.9,0.1l-0.1,2.3h1.1
			c0.3,0,1,0,2,0l1.9,0c0.3,0,0.8,0,1.4-0.1c-0.1,0.9-0.1,1.9-0.2,2.8c-1.5,0-3.2,0-5,0l-4.1,0L68.1,25z"/>
		<path d="M91.6,21.9c-0.1,0.4-0.2,0.9-0.3,1.5c-0.1,0.7-0.2,1.2-0.2,1.5c-1.3,0.2-2.5,0.3-3.5,0.3c-1,0-1.9-0.1-2.8-0.4
			c-0.9-0.2-1.7-0.7-2.4-1.2c-0.7-0.6-1.2-1.2-1.5-2c-0.3-0.8-0.5-1.6-0.5-2.6c0-1.1,0.2-2.1,0.6-3c0.4-0.9,1-1.6,1.8-2.2
			c0.8-0.6,1.6-1,2.6-1.3c0.9-0.3,1.9-0.4,2.9-0.4c0.9,0,2,0.1,3.4,0.4l0,0.8c0,0.3,0,0.7,0.1,1.1l0.1,1.1c-0.7-0.2-1.3-0.3-1.8-0.4
			C89.6,15,89.2,15,88.8,15c-0.8,0-1.6,0.2-2.3,0.5s-1.2,0.8-1.6,1.5c-0.4,0.6-0.6,1.3-0.6,2.1c0,0.7,0.2,1.3,0.5,1.8
			c0.3,0.5,0.8,0.9,1.3,1.2c0.5,0.3,1.2,0.4,2,0.4c0.4,0,0.9,0,1.4-0.1C90.1,22.3,90.8,22.1,91.6,21.9z"/>
		<path d="M101,12.1c1,0,1.9,0.1,2.9,0.4c0.9,0.3,1.7,0.7,2.4,1.3c0.7,0.6,1.2,1.3,1.5,2c0.3,0.8,0.5,1.6,0.5,2.6c0,1-0.2,2-0.6,2.9
			c-0.4,0.9-0.9,1.6-1.6,2.2c-0.7,0.6-1.5,1-2.5,1.3c-1,0.3-2,0.4-3.1,0.4c-1,0-2-0.1-3-0.4c-1-0.3-1.8-0.7-2.5-1.3
			c-0.7-0.6-1.2-1.3-1.5-2.1c-0.3-0.8-0.4-1.6-0.4-2.5c0-1.4,0.3-2.5,0.9-3.6c0.6-1,1.6-1.8,2.8-2.4C98.1,12.4,99.5,12.1,101,12.1z
			 M100.8,14.9c-0.7,0-1.4,0.2-1.9,0.5c-0.6,0.3-1,0.8-1.3,1.5c-0.3,0.6-0.5,1.3-0.5,2c0,0.7,0.1,1.3,0.4,1.8c0.3,0.5,0.7,1,1.3,1.3
			c0.6,0.3,1.2,0.5,1.8,0.5c0.7,0,1.3-0.2,1.9-0.5c0.6-0.3,1-0.8,1.3-1.4c0.3-0.6,0.5-1.3,0.5-2c0-0.7-0.1-1.3-0.4-1.8
			c-0.3-0.6-0.7-1-1.2-1.3C102.1,15,101.5,14.9,100.8,14.9z"/>
		<path d="M109.6,25l0.2-1.9l0.6-6.5l0.3-4.3c1.1,0,2,0,2.7,0c0.5,0,1.4,0,2.5,0c0.1,0.5,0.1,0.9,0.2,1.2c0.1,0.3,0.2,0.8,0.4,1.6
			c0.2,0.8,0.4,1.5,0.5,2.1c0.1,0.6,0.3,1.6,0.6,3c0.3-1,0.5-1.8,0.7-2.5c0.2-0.7,0.5-1.5,0.8-2.4c0.3-0.9,0.5-1.5,0.6-1.7
			c0.1-0.3,0.2-0.7,0.4-1.3c0.9,0,1.8,0,2.7,0c0.6,0,1.4,0,2.5,0c-0.1,2.1-0.2,3.9-0.2,5.4c-0.1,2.9-0.1,4.9-0.1,6
			c0,0.2,0,0.6,0,1.2c-0.8,0-1.4,0-1.7,0c-0.5,0-1.1,0-1.8,0c0-0.6,0.1-1.9,0.2-4c0.1-2.1,0.1-3.4,0.1-4c0-0.3,0-0.6,0-1.1l-1.2,3.8
			l-1.7,5.3c-0.8,0-1.4,0-1.7,0c-0.4,0-1,0-1.8,0l-1.1-5.1l-0.7-2.7c0-0.1-0.1-0.2-0.1-0.4c0-0.2-0.1-0.4-0.1-0.8l-0.2,2.6l-0.3,5.3
			l0,1.2c-0.9,0-1.4,0-1.6,0C110.9,25,110.4,25,109.6,25z"/>
		<path d="M127.3,25c0.1-1.4,0.2-2.4,0.3-3.2c0.1-1.1,0.1-2.5,0.2-4.4s0.1-3.2,0.1-3.9c0-0.3,0-0.7,0-1.2c0.8,0,1.5,0,2,0
			c0.7,0,1.5,0,2.4,0c0.9,0,1.7,0,2.3,0c0.8,0,1.3,0,1.7,0.1c0.4,0.1,0.8,0.2,1.1,0.3c0.3,0.1,0.6,0.3,0.8,0.5
			c0.2,0.2,0.4,0.5,0.6,0.9c0.2,0.4,0.2,0.8,0.2,1.3c0,0.4,0,0.7-0.1,1c-0.1,0.3-0.2,0.6-0.4,0.9c-0.2,0.3-0.3,0.5-0.6,0.6
			c-0.2,0.2-0.4,0.3-0.6,0.4c-0.2,0.1-0.5,0.2-0.8,0.3c0.3,0.1,0.6,0.1,0.8,0.2c0.2,0.1,0.4,0.2,0.6,0.3c0.2,0.2,0.4,0.4,0.6,0.6
			c0.2,0.2,0.3,0.5,0.4,0.8c0.1,0.3,0.1,0.6,0.1,1c0,0.5-0.1,0.9-0.2,1.3c-0.2,0.4-0.4,0.8-0.6,1.1c-0.2,0.3-0.5,0.5-0.9,0.6
			c-0.4,0.2-0.8,0.3-1.2,0.4c-0.3,0-0.9,0.1-1.8,0.1c-0.9,0-1.8,0-2.7,0l-2.4,0L127.3,25z M131.3,22.5h1.8c0.5,0,0.8,0,1-0.1
			c0.3-0.1,0.5-0.2,0.6-0.3c0.1-0.1,0.3-0.3,0.3-0.5c0.1-0.2,0.1-0.4,0.1-0.6c0-0.2,0-0.4-0.1-0.5c-0.1-0.2-0.2-0.3-0.3-0.4
			c-0.1-0.1-0.3-0.2-0.5-0.2c-0.2,0-0.5-0.1-0.9-0.1h-2L131.3,22.5z M131.5,17.3h1.3c0.4,0,0.7,0,0.9,0c0.2,0,0.4-0.1,0.5-0.1
			c0.2-0.1,0.3-0.1,0.5-0.3s0.2-0.3,0.3-0.4c0.1-0.2,0.1-0.3,0.1-0.5c0-0.2-0.1-0.4-0.2-0.6c-0.1-0.2-0.3-0.3-0.5-0.4
			c-0.2-0.1-0.6-0.1-1.1-0.1h-1.7L131.5,17.3z"/>
		<path d="M139.8,21.4c0.1-0.9,0.1-1.8,0.1-2.6c0.9,0,1.7,0,2.5,0c0.8,0,1.6,0,2.5,0c-0.1,0.8-0.1,1.7-0.1,2.6c-0.9,0-1.7,0-2.5,0
			C141.5,21.3,140.7,21.3,139.8,21.4z"/>
		<path d="M145.7,24.8c-0.1-1.3-0.2-2.4-0.3-3.2c0.7,0.3,1.3,0.5,1.9,0.6c0.5,0.1,1,0.2,1.4,0.2c0.5,0,1-0.1,1.3-0.2
			c0.3-0.2,0.5-0.4,0.5-0.7c0-0.1,0-0.2,0-0.3c0-0.1-0.1-0.2-0.2-0.3c-0.1-0.1-0.2-0.3-0.4-0.4l-1.7-1.5c-0.4-0.3-0.7-0.6-0.9-0.8
			c-0.3-0.3-0.6-0.6-0.8-0.9c-0.2-0.3-0.3-0.5-0.4-0.8c-0.1-0.3-0.1-0.6-0.1-0.9c0-0.4,0.1-0.7,0.2-1.1c0.1-0.4,0.3-0.7,0.6-1
			s0.6-0.6,1.1-0.8c0.4-0.2,0.9-0.4,1.4-0.5c0.5-0.1,1-0.1,1.5-0.1c1,0,2.2,0.1,3.4,0.4c0,0.4,0,0.8,0.1,1.2c0,0.4,0.1,1,0.2,1.9
			c-0.6-0.2-1.1-0.4-1.6-0.5c-0.5-0.1-0.9-0.1-1.2-0.1c-0.5,0-0.9,0.1-1.2,0.3c-0.3,0.2-0.5,0.4-0.5,0.7c0,0.1,0,0.2,0.1,0.4
			c0,0.1,0.1,0.3,0.3,0.4c0.1,0.2,0.3,0.3,0.5,0.5c0.2,0.2,0.6,0.5,1,0.8l0.7,0.5c0.2,0.2,0.4,0.4,0.6,0.6c0.2,0.2,0.4,0.5,0.6,0.7
			c0.2,0.2,0.3,0.4,0.4,0.6c0.1,0.2,0.2,0.4,0.2,0.6c0,0.2,0.1,0.4,0.1,0.6c0,0.6-0.1,1.1-0.4,1.6c-0.3,0.5-0.6,0.9-1.1,1.2
			c-0.5,0.3-1,0.6-1.6,0.7c-0.6,0.1-1.2,0.2-1.9,0.2C148.5,25.2,147.3,25.1,145.7,24.8z"/>
		<path d="M156.4,25c0.2-1.6,0.3-2.9,0.3-4s0.1-2.5,0.2-4.3c0.1-1.8,0.1-3,0.1-3.5l0-0.8c1.5,0,3.2,0,5.3,0c1.9,0,3.6,0,5.1,0l0,0.3
			c0,0.1,0,0.3,0,0.8l-0.1,1c0,0.2,0,0.4,0,0.7c-1.2,0-2.2-0.1-3-0.1c-0.9,0-1.5,0-1.8,0c-0.3,0-0.8,0-1.5,0l-0.1,2.1
			c0.7,0,1.6,0,2.6,0c0.3,0,1.3,0,2.8-0.1c-0.1,0.8-0.1,1.7-0.2,2.8c-1.1,0-1.9,0-2.5,0c-0.9,0-1.8,0-2.9,0.1l-0.1,2.3h1.1
			c0.3,0,1,0,2,0l1.9,0c0.3,0,0.8,0,1.4-0.1c-0.1,0.9-0.1,1.9-0.2,2.8c-1.5,0-3.2,0-5,0l-4.1,0L156.4,25z"/>
		<path d="M184.3,21.8c-0.1,0.5-0.2,0.9-0.3,1.4l-0.3,1.5c-1,0.2-2.2,0.3-3.5,0.4c-1.3,0.1-2.6,0.1-3.6,0.1c-0.9,0-1.8-0.1-2.6-0.2
			s-1.6-0.4-2.3-0.8c-0.7-0.4-1.3-0.9-1.7-1.4c-0.5-0.6-0.8-1.2-1-1.8c-0.2-0.6-0.3-1.3-0.3-2.1c0-1,0.2-1.9,0.5-2.7
			c0.4-0.8,0.9-1.5,1.6-2.1c0.7-0.6,1.5-1.1,2.5-1.4c1-0.3,2.1-0.5,3.4-0.5c1,0,1.9,0.1,2.8,0.4c0.9,0.3,1.7,0.7,2.4,1.3
			c0.7,0.6,1.2,1.2,1.5,2c0.4,0.8,0.5,1.5,0.5,2.3c0,0.4,0,0.9-0.1,1.3c-0.1,0.4-0.2,0.8-0.4,1.2c-0.2,0.4-0.4,0.7-0.6,0.9
			c-0.2,0.3-0.5,0.6-0.8,0.9c0.6-0.1,1-0.1,1.3-0.2C183.4,22,183.8,21.9,184.3,21.8z M176.4,14.9c-0.7,0-1.4,0.2-2,0.5
			s-1.1,0.8-1.4,1.5c-0.3,0.6-0.5,1.3-0.5,1.9c0,0.7,0.2,1.3,0.5,1.9c0.3,0.5,0.7,0.9,1.3,1.2s1.2,0.4,1.8,0.4
			c0.7,0,1.3-0.2,1.9-0.5c0.6-0.3,1-0.8,1.3-1.4c0.3-0.6,0.5-1.3,0.5-2c0-0.7-0.1-1.3-0.4-1.8c-0.3-0.6-0.7-1-1.2-1.3
			C177.7,15.1,177.1,14.9,176.4,14.9z"/>
	</g>
	<g>
		<path d="M94.3,45c0-0.3,0-0.7,0.1-1.2c0-0.5,0-1,0.1-1.5c0.7-0.5,1.3-1.1,1.8-1.6c0.9-0.8,1.7-1.6,2.4-2.4c0.6-0.6,1-1.1,1.4-1.6
			c0.2-0.3,0.4-0.5,0.4-0.7c0.1-0.1,0.1-0.3,0.1-0.4c0-0.2,0-0.3-0.1-0.5c-0.1-0.1-0.2-0.3-0.4-0.4c-0.2-0.1-0.4-0.2-0.7-0.2
			c-0.3-0.1-0.5-0.1-0.9-0.1c-0.4,0-0.9,0-1.4,0.1s-1.2,0.2-2,0.4l0.3-1.4c0.1-0.3,0.1-0.8,0.3-1.6c1.7-0.3,3.3-0.4,4.8-0.4
			c0.7,0,1.3,0.1,1.9,0.2c0.6,0.1,1.2,0.3,1.7,0.6c0.5,0.3,0.9,0.6,1.1,1c0.2,0.4,0.4,0.8,0.4,1.3c0,0.3,0,0.6-0.1,0.9
			c-0.1,0.3-0.2,0.6-0.4,1c-0.2,0.5-0.5,0.9-0.9,1.4c-0.5,0.7-1.2,1.4-1.9,2.1c-0.7,0.7-1.5,1.4-2.4,2.3l1.1,0c0.3,0,0.7,0,1.5,0
			c0.7,0,1.3,0,1.5,0c0.3,0,0.6,0,1.1-0.1c0,0.3,0,0.7-0.1,1.2c0,0.5-0.1,1-0.1,1.7c-1.6,0-3.3,0-5,0C97.5,45,95.8,45,94.3,45z"/>
		<path d="M113.2,31.6c1,0,2,0.2,2.8,0.6c0.8,0.4,1.5,1.1,1.9,2.1c0.5,1,0.7,2.1,0.7,3.5c0,1-0.1,2.1-0.4,3.1
			c-0.3,1-0.7,1.8-1.2,2.5c-0.5,0.6-1.1,1.1-1.9,1.4c-0.8,0.3-1.7,0.5-2.6,0.5c-0.8,0-1.5-0.1-2.2-0.4c-0.7-0.3-1.3-0.7-1.8-1.2
			c-0.5-0.6-0.9-1.2-1.1-2s-0.3-1.6-0.3-2.5c0-1.1,0.1-2.1,0.4-3.1c0.3-1,0.7-1.9,1.2-2.5s1.2-1.1,1.9-1.4
			C111.5,31.8,112.3,31.6,113.2,31.6z M113.1,34.5c-0.3,0-0.6,0.1-0.8,0.3c-0.3,0.2-0.5,0.5-0.7,0.9c-0.2,0.5-0.4,1-0.5,1.6
			c-0.1,0.6-0.2,1.4-0.2,2.1c0,0.7,0.1,1.2,0.2,1.7c0.1,0.4,0.3,0.8,0.6,1c0.3,0.2,0.6,0.4,0.9,0.4c0.2,0,0.4,0,0.6-0.1
			c0.2-0.1,0.4-0.3,0.6-0.5c0.2-0.3,0.4-0.6,0.5-1.1s0.3-1,0.3-1.5c0.1-0.5,0.1-1,0.1-1.6c0-1.1-0.2-1.9-0.5-2.4
			C114.1,34.8,113.7,34.5,113.1,34.5z"/>
		<path d="M120,45c0-0.3,0-0.7,0.1-1.2c0-0.5,0-1,0.1-1.5c0.7-0.5,1.3-1.1,1.8-1.6c0.9-0.8,1.7-1.6,2.4-2.4c0.6-0.6,1-1.1,1.4-1.6
			c0.2-0.3,0.4-0.5,0.4-0.7c0.1-0.1,0.1-0.3,0.1-0.4c0-0.2,0-0.3-0.1-0.5c-0.1-0.1-0.2-0.3-0.4-0.4c-0.2-0.1-0.4-0.2-0.7-0.2
			c-0.3-0.1-0.5-0.1-0.9-0.1c-0.4,0-0.9,0-1.4,0.1s-1.2,0.2-2,0.4l0.3-1.4c0.1-0.3,0.1-0.8,0.3-1.6c1.7-0.3,3.3-0.4,4.8-0.4
			c0.7,0,1.3,0.1,1.9,0.2c0.6,0.1,1.2,0.3,1.7,0.6c0.5,0.3,0.9,0.6,1.1,1c0.2,0.4,0.4,0.8,0.4,1.3c0,0.3,0,0.6-0.1,0.9
			c-0.1,0.3-0.2,0.6-0.4,1c-0.2,0.5-0.5,0.9-0.9,1.4c-0.5,0.7-1.2,1.4-1.9,2.1c-0.7,0.7-1.5,1.4-2.4,2.3l1.1,0c0.3,0,0.7,0,1.5,0
			c0.7,0,1.3,0,1.5,0c0.3,0,0.6,0,1.1-0.1c0,0.3,0,0.7-0.1,1.2c0,0.5-0.1,1-0.1,1.7c-1.6,0-3.3,0-5,0C123.3,45,121.5,45,120,45z"/>
		<path d="M133.4,44.8c-0.1-1.3-0.2-2.3-0.2-3.1c1.4,0.5,2.7,0.7,3.9,0.7c0.7,0,1.3-0.1,1.7-0.4s0.7-0.7,0.7-1.2
			c0-0.5-0.2-0.8-0.7-1c-0.4-0.2-1.1-0.3-2.1-0.3c-0.6,0-1.2,0-1.7,0.1c0.1-1,0.2-2,0.2-3c0.5,0.1,0.9,0.1,1.5,0.1
			c0.6,0,1.1,0,1.4-0.1c0.4-0.1,0.7-0.2,0.9-0.4c0.2-0.2,0.3-0.4,0.3-0.7c0-0.2-0.1-0.4-0.2-0.6s-0.4-0.3-0.7-0.4
			c-0.3-0.1-0.7-0.1-1.2-0.1c-0.4,0-0.8,0-1.3,0.1c-0.5,0-1.1,0.1-1.9,0.3l0.5-2.2c0-0.2,0.1-0.4,0.1-0.6c1.4-0.2,2.7-0.3,3.8-0.3
			c0.8,0,1.5,0.1,2.2,0.2c0.7,0.1,1.3,0.3,1.8,0.6c0.5,0.3,0.9,0.6,1.1,1.1c0.2,0.4,0.4,0.9,0.4,1.5c0,0.3,0,0.6-0.1,0.9
			c-0.1,0.3-0.2,0.6-0.4,0.8c-0.2,0.3-0.4,0.5-0.6,0.7c-0.2,0.2-0.5,0.4-0.7,0.5s-0.5,0.3-0.9,0.4c0.4,0.1,0.7,0.2,1,0.3
			c0.2,0.1,0.5,0.2,0.7,0.4s0.4,0.4,0.6,0.6c0.2,0.2,0.3,0.5,0.4,0.8c0.1,0.3,0.1,0.6,0.1,0.9c0,0.6-0.1,1.2-0.4,1.8
			c-0.3,0.5-0.7,1-1.3,1.3c-0.6,0.4-1.2,0.6-2,0.8c-0.7,0.2-1.5,0.2-2.2,0.2c-0.7,0-1.4,0-2.1-0.1C135.2,45.1,134.4,45,133.4,44.8z"
			/>
	</g>
</g>
<g>
	<g>
		<path style="fill:#999999;" d="M-0.6,118.7c-0.1,1,0.7,1.9,1.7,1.9h3.4c0.9,0,1.6-0.6,1.7-1.5c0.1-0.5,0.2-1.2,0.4-1.9h33
			c0.2,0.7,0.3,1.4,0.4,1.9c0.1,0.8,0.8,1.5,1.7,1.5h3.4c1,0,1.8-0.9,1.7-1.9c-0.5-4-2.7-13.5-12.6-21.9c-1.8,1.3-3.9,2.6-6.2,3.8
			c0.7,0.5,1.2,1,1.8,1.5H16.3c2.2-1.9,5-3.8,8.3-5.4c18.2-9,21.5-23.1,22.1-28.2c0.1-1-0.7-1.9-1.7-1.9h-3.4
			c-0.9,0-1.6,0.6-1.7,1.5c-0.1,0.5-0.2,1.2-0.4,1.9h-33c-0.1-0.8-0.2-1.5-0.3-2c-0.1-0.9-0.8-1.5-1.7-1.5H1.1c-1,0-1.8,0.9-1.7,1.9
			c0.5,4.5,3.3,16.3,16.9,25.2C2.7,102.4,0,114.2-0.6,118.7z M23.1,89.7c-2.7-1.5-4.9-3-6.8-4.6h13.6C28,86.7,25.7,88.2,23.1,89.7z
			 M36.9,76.7c-0.6,1.1-1.4,2.2-2.2,3.3H11.4c-0.9-1.1-1.6-2.3-2.2-3.4L36.9,76.7z M9.2,110.3c0.6-1.1,1.3-2.2,2.2-3.4h23.2
			c0.9,1.1,1.6,2.3,2.2,3.4H9.2z"/>
	</g>
	<g>
		<path style="fill:#999999;" d="M55,89c0.1-1.1,0.2-2.1,0.3-2.9c0.1-0.9,0.1-1.9,0.2-3c0-1.2,0.1-2.4,0.1-3.6c0-1.3,0-2.3,0-3
			c0.8,0,1.4,0,1.9,0c0.5,0,1.1,0,1.8,0c0.7,0,1.4,0,2.1,0c0.8,0,1.5,0,2.1,0.1c0.5,0,0.9,0.1,1.3,0.3c0.4,0.1,0.7,0.3,1,0.5
			c0.3,0.2,0.5,0.4,0.6,0.7s0.3,0.5,0.4,0.8c0.1,0.3,0.1,0.7,0.1,1c0,0.4-0.1,0.8-0.2,1.2c-0.1,0.4-0.3,0.7-0.5,1
			c-0.2,0.3-0.5,0.6-0.9,0.8c-0.3,0.2-0.8,0.5-1.4,0.7l0.5,1.2c0.1,0.3,0.3,0.7,0.4,1l1.2,2.7c0.1,0.1,0.2,0.3,0.3,0.7
			c-1,0-1.7,0-2.1,0c-0.4,0-1.2,0-2.2,0c-0.1-0.3-0.3-0.9-0.5-1.8c-0.1-0.4-0.2-0.6-0.3-0.8c-0.1-0.4-0.4-1.1-0.7-1.8l-1-2.6
			c0.3,0.1,0.7,0.1,1,0.1c0.5,0,0.9-0.1,1.2-0.2c0.4-0.1,0.6-0.3,0.8-0.6c0.2-0.3,0.3-0.6,0.3-0.9c0-0.3-0.1-0.5-0.2-0.7
			c-0.1-0.2-0.4-0.4-0.7-0.4c-0.3-0.1-0.8-0.1-1.4-0.1c-0.2,0-0.4,0-0.7,0c-0.2,0-0.5,0-0.8,0c-0.1,1.3-0.1,2.8-0.2,4.6
			C59,85.4,59,87.2,58.9,89c-1,0-1.7,0-2,0C56.6,88.9,55.9,88.9,55,89z"/>
		<path style="fill:#999999;" d="M68.3,89c0.2-1.6,0.3-2.9,0.3-4s0.1-2.5,0.2-4.3c0.1-1.8,0.1-3,0.1-3.5l0-0.8c1.5,0,3.2,0,5.3,0
			c1.9,0,3.6,0,5.1,0l0,0.3c0,0.1,0,0.3,0,0.8l-0.1,1c0,0.2,0,0.4,0,0.7C78,79,77,79,76.2,79c-0.9,0-1.5,0-1.8,0c-0.3,0-0.8,0-1.5,0
			l-0.1,2.1c0.7,0,1.6,0,2.6,0c0.3,0,1.3,0,2.8-0.1C78,81.9,78,82.9,77.9,84c-1.1,0-1.9,0-2.5,0c-0.9,0-1.8,0-2.9,0.1l-0.1,2.3h1.1
			c0.3,0,1,0,2,0l1.9,0c0.3,0,0.8,0,1.4-0.1C78.8,87,78.7,88,78.7,89c-1.5,0-3.2,0-5,0l-4.1,0L68.3,89z"/>
		<path style="fill:#999999;" d="M91.8,85.9c-0.1,0.4-0.2,0.9-0.3,1.5c-0.1,0.7-0.2,1.2-0.2,1.5c-1.3,0.2-2.5,0.3-3.5,0.3
			c-1,0-1.9-0.1-2.8-0.4c-0.9-0.2-1.7-0.7-2.4-1.2c-0.7-0.6-1.2-1.2-1.5-2c-0.3-0.8-0.5-1.6-0.5-2.6c0-1.1,0.2-2.1,0.6-3
			c0.4-0.9,1-1.6,1.8-2.2c0.8-0.6,1.6-1,2.6-1.3c0.9-0.3,1.9-0.4,2.9-0.4c0.9,0,2,0.1,3.4,0.4l0,0.8c0,0.3,0,0.7,0.1,1.1l0.1,1.1
			c-0.7-0.2-1.3-0.3-1.8-0.4c-0.4-0.1-0.9-0.1-1.2-0.1c-0.8,0-1.6,0.2-2.3,0.5s-1.2,0.8-1.6,1.5c-0.4,0.6-0.6,1.3-0.6,2.1
			c0,0.7,0.2,1.3,0.5,1.8c0.3,0.5,0.8,0.9,1.3,1.2c0.5,0.3,1.2,0.4,2,0.4c0.4,0,0.9,0,1.4-0.1C90.4,86.2,91,86.1,91.8,85.9z"/>
		<path style="fill:#999999;" d="M101.2,76c1,0,1.9,0.1,2.9,0.4c0.9,0.3,1.7,0.7,2.4,1.3c0.7,0.6,1.2,1.3,1.5,2
			c0.3,0.8,0.5,1.6,0.5,2.6c0,1-0.2,2-0.6,2.9c-0.4,0.9-0.9,1.6-1.6,2.2c-0.7,0.6-1.5,1-2.5,1.3c-1,0.3-2,0.4-3.1,0.4
			c-1,0-2-0.1-3-0.4c-1-0.3-1.8-0.7-2.5-1.3c-0.7-0.6-1.2-1.3-1.5-2.1c-0.3-0.8-0.4-1.6-0.4-2.5c0-1.4,0.3-2.5,0.9-3.6
			c0.6-1,1.6-1.8,2.8-2.4C98.3,76.3,99.7,76,101.2,76z M101.1,78.8c-0.7,0-1.4,0.2-1.9,0.5c-0.6,0.3-1,0.8-1.3,1.5
			c-0.3,0.6-0.5,1.3-0.5,2c0,0.7,0.1,1.3,0.4,1.8c0.3,0.5,0.7,1,1.3,1.3c0.6,0.3,1.2,0.5,1.8,0.5c0.7,0,1.3-0.2,1.9-0.5
			c0.6-0.3,1-0.8,1.3-1.4c0.3-0.6,0.5-1.3,0.5-2c0-0.7-0.1-1.3-0.4-1.8c-0.3-0.6-0.7-1-1.2-1.3C102.3,79,101.7,78.8,101.1,78.8z"/>
		<path style="fill:#999999;" d="M109.8,89l0.2-1.9l0.6-6.5l0.3-4.3c1.1,0,2,0,2.7,0c0.5,0,1.4,0,2.5,0c0.1,0.5,0.1,0.9,0.2,1.2
			c0.1,0.3,0.2,0.8,0.4,1.6c0.2,0.8,0.4,1.5,0.5,2.1c0.1,0.6,0.3,1.6,0.6,3c0.3-1,0.5-1.8,0.7-2.5c0.2-0.7,0.5-1.5,0.8-2.4
			c0.3-0.9,0.5-1.5,0.6-1.7c0.1-0.3,0.2-0.7,0.4-1.3c0.9,0,1.8,0,2.7,0c0.6,0,1.4,0,2.5,0c-0.1,2.1-0.2,3.9-0.2,5.4
			c-0.1,2.9-0.1,4.9-0.1,6c0,0.2,0,0.6,0,1.2c-0.8,0-1.4,0-1.7,0c-0.5,0-1.1,0-1.8,0c0-0.6,0.1-1.9,0.2-4c0.1-2.1,0.1-3.4,0.1-4
			c0-0.3,0-0.6,0-1.1l-1.2,3.8l-1.7,5.3c-0.8,0-1.4,0-1.7,0c-0.4,0-1,0-1.8,0l-1.1-5.1l-0.7-2.7c0-0.1-0.1-0.2-0.1-0.4
			c0-0.2-0.1-0.4-0.1-0.8l-0.2,2.6l-0.3,5.3l0,1.2c-0.9,0-1.4,0-1.6,0C111.2,88.9,110.6,88.9,109.8,89z"/>
		<path style="fill:#999999;" d="M127.6,89c0.1-1.4,0.2-2.4,0.3-3.2c0.1-1.1,0.1-2.5,0.2-4.4s0.1-3.2,0.1-3.9c0-0.3,0-0.7,0-1.2
			c0.8,0,1.5,0,2,0c0.7,0,1.5,0,2.4,0c0.9,0,1.7,0,2.3,0c0.8,0,1.3,0,1.7,0.1c0.4,0.1,0.8,0.2,1.1,0.3c0.3,0.1,0.6,0.3,0.8,0.5
			c0.2,0.2,0.4,0.5,0.6,0.9c0.2,0.4,0.2,0.8,0.2,1.3c0,0.4,0,0.7-0.1,1c-0.1,0.3-0.2,0.6-0.4,0.9c-0.2,0.3-0.3,0.5-0.6,0.6
			c-0.2,0.2-0.4,0.3-0.6,0.4c-0.2,0.1-0.5,0.2-0.8,0.3c0.3,0.1,0.6,0.1,0.8,0.2c0.2,0.1,0.4,0.2,0.6,0.3c0.2,0.2,0.4,0.4,0.6,0.6
			c0.2,0.2,0.3,0.5,0.4,0.8c0.1,0.3,0.1,0.6,0.1,1c0,0.5-0.1,0.9-0.2,1.3c-0.2,0.4-0.4,0.8-0.6,1.1c-0.2,0.3-0.5,0.5-0.9,0.6
			c-0.4,0.2-0.8,0.3-1.2,0.4c-0.3,0-0.9,0.1-1.8,0.1c-0.9,0-1.8,0-2.7,0l-2.4,0L127.6,89z M131.5,86.4h1.8c0.5,0,0.8,0,1-0.1
			c0.3-0.1,0.5-0.2,0.6-0.3c0.1-0.1,0.3-0.3,0.3-0.5c0.1-0.2,0.1-0.4,0.1-0.6c0-0.2,0-0.4-0.1-0.5c-0.1-0.2-0.2-0.3-0.3-0.4
			c-0.1-0.1-0.3-0.2-0.5-0.2c-0.2,0-0.5-0.1-0.9-0.1h-2L131.5,86.4z M131.7,81.2h1.3c0.4,0,0.7,0,0.9,0c0.2,0,0.4-0.1,0.5-0.1
			c0.2-0.1,0.3-0.1,0.5-0.3s0.2-0.3,0.3-0.4c0.1-0.2,0.1-0.3,0.1-0.5c0-0.2-0.1-0.4-0.2-0.6c-0.1-0.2-0.3-0.3-0.5-0.4
			c-0.2-0.1-0.6-0.1-1.1-0.1h-1.7L131.7,81.2z"/>
		<path style="fill:#999999;" d="M140.1,85.3c0.1-0.9,0.1-1.8,0.1-2.6c0.9,0,1.7,0,2.5,0c0.8,0,1.6,0,2.5,0
			c-0.1,0.8-0.1,1.7-0.1,2.6c-0.9,0-1.7,0-2.5,0C141.8,85.3,140.9,85.3,140.1,85.3z"/>
		<path style="fill:#999999;" d="M146,88.8c-0.1-1.3-0.2-2.4-0.3-3.2c0.7,0.3,1.3,0.5,1.9,0.6c0.5,0.1,1,0.2,1.4,0.2
			c0.5,0,1-0.1,1.3-0.2c0.3-0.2,0.5-0.4,0.5-0.7c0-0.1,0-0.2,0-0.3c0-0.1-0.1-0.2-0.2-0.3c-0.1-0.1-0.2-0.3-0.4-0.4l-1.7-1.5
			c-0.4-0.3-0.7-0.6-0.9-0.8c-0.3-0.3-0.6-0.6-0.8-0.9c-0.2-0.3-0.3-0.5-0.4-0.8c-0.1-0.3-0.1-0.6-0.1-0.9c0-0.4,0.1-0.7,0.2-1.1
			c0.1-0.4,0.3-0.7,0.6-1s0.6-0.6,1.1-0.8c0.4-0.2,0.9-0.4,1.4-0.5c0.5-0.1,1-0.1,1.5-0.1c1,0,2.2,0.1,3.4,0.4c0,0.4,0,0.8,0.1,1.2
			c0,0.4,0.1,1,0.2,1.9c-0.6-0.2-1.1-0.4-1.6-0.5c-0.5-0.1-0.9-0.1-1.2-0.1c-0.5,0-0.9,0.1-1.2,0.3c-0.3,0.2-0.5,0.4-0.5,0.7
			c0,0.1,0,0.2,0.1,0.4c0,0.1,0.1,0.3,0.3,0.4c0.1,0.2,0.3,0.3,0.5,0.5c0.2,0.2,0.6,0.5,1,0.8l0.7,0.5c0.2,0.2,0.4,0.4,0.6,0.6
			c0.2,0.2,0.4,0.5,0.6,0.7c0.2,0.2,0.3,0.4,0.4,0.6c0.1,0.2,0.2,0.4,0.2,0.6c0,0.2,0.1,0.4,0.1,0.6c0,0.6-0.1,1.1-0.4,1.6
			c-0.3,0.5-0.6,0.9-1.1,1.2c-0.5,0.3-1,0.6-1.6,0.7c-0.6,0.1-1.2,0.2-1.9,0.2C148.8,89.2,147.5,89,146,88.8z"/>
		<path style="fill:#999999;" d="M156.6,89c0.2-1.6,0.3-2.9,0.3-4s0.1-2.5,0.2-4.3c0.1-1.8,0.1-3,0.1-3.5l0-0.8c1.5,0,3.2,0,5.3,0
			c1.9,0,3.6,0,5.1,0l0,0.3c0,0.1,0,0.3,0,0.8l-0.1,1c0,0.2,0,0.4,0,0.7c-1.2,0-2.2-0.1-3-0.1c-0.9,0-1.5,0-1.8,0
			c-0.3,0-0.8,0-1.5,0l-0.1,2.1c0.7,0,1.6,0,2.6,0c0.3,0,1.3,0,2.8-0.1c-0.1,0.8-0.1,1.7-0.2,2.8c-1.1,0-1.9,0-2.5,0
			c-0.9,0-1.8,0-2.9,0.1l-0.1,2.3h1.1c0.3,0,1,0,2,0l1.9,0c0.3,0,0.8,0,1.4-0.1C167,87,167,88,166.9,89c-1.5,0-3.2,0-5,0l-4.1,0
			L156.6,89z"/>
		<path style="fill:#999999;" d="M184.5,85.8c-0.1,0.5-0.2,0.9-0.3,1.4l-0.3,1.5c-1,0.2-2.2,0.3-3.5,0.4c-1.3,0.1-2.6,0.1-3.6,0.1
			c-0.9,0-1.8-0.1-2.6-0.2s-1.6-0.4-2.3-0.8c-0.7-0.4-1.3-0.9-1.7-1.4c-0.5-0.6-0.8-1.2-1-1.8c-0.2-0.6-0.3-1.3-0.3-2.1
			c0-1,0.2-1.9,0.5-2.7c0.4-0.8,0.9-1.5,1.6-2.1c0.7-0.6,1.5-1.1,2.5-1.4c1-0.3,2.1-0.5,3.4-0.5c1,0,1.9,0.1,2.8,0.4
			c0.9,0.3,1.7,0.7,2.4,1.3c0.7,0.6,1.2,1.2,1.5,2c0.4,0.8,0.5,1.5,0.5,2.3c0,0.4,0,0.9-0.1,1.3c-0.1,0.4-0.2,0.8-0.4,1.2
			c-0.2,0.4-0.4,0.7-0.6,0.9c-0.2,0.3-0.5,0.6-0.8,0.9c0.6-0.1,1-0.1,1.3-0.2C183.7,86,184,85.9,184.5,85.8z M176.6,78.9
			c-0.7,0-1.4,0.2-2,0.5s-1.1,0.8-1.4,1.5c-0.3,0.6-0.5,1.3-0.5,1.9c0,0.7,0.2,1.3,0.5,1.9c0.3,0.5,0.7,0.9,1.3,1.2s1.2,0.4,1.8,0.4
			c0.7,0,1.3-0.2,1.9-0.5c0.6-0.3,1-0.8,1.3-1.4c0.3-0.6,0.5-1.3,0.5-2c0-0.7-0.1-1.3-0.4-1.8c-0.3-0.6-0.7-1-1.2-1.3
			C177.9,79,177.3,78.9,176.6,78.9z"/>
	</g>
	<g>
		<path style="fill:#999999;" d="M94.5,109c0-0.3,0-0.7,0.1-1.2c0-0.5,0-1,0.1-1.5c0.7-0.5,1.3-1.1,1.8-1.6c0.9-0.8,1.7-1.6,2.4-2.4
			c0.6-0.6,1-1.1,1.4-1.6c0.2-0.3,0.4-0.5,0.4-0.7c0.1-0.1,0.1-0.3,0.1-0.4c0-0.2,0-0.3-0.1-0.5c-0.1-0.1-0.2-0.3-0.4-0.4
			c-0.2-0.1-0.4-0.2-0.7-0.2c-0.3-0.1-0.5-0.1-0.9-0.1c-0.4,0-0.9,0-1.4,0.1s-1.2,0.2-2,0.4l0.3-1.4c0.1-0.3,0.1-0.8,0.3-1.6
			c1.7-0.3,3.3-0.4,4.8-0.4c0.7,0,1.3,0.1,1.9,0.2s1.2,0.3,1.7,0.6c0.5,0.3,0.9,0.6,1.1,1c0.2,0.4,0.4,0.8,0.4,1.3
			c0,0.3,0,0.6-0.1,0.9c-0.1,0.3-0.2,0.6-0.4,1c-0.2,0.5-0.5,0.9-0.9,1.4c-0.5,0.7-1.2,1.4-1.9,2.1c-0.7,0.7-1.5,1.4-2.4,2.3l1.1,0
			c0.3,0,0.7,0,1.5,0s1.3,0,1.5,0c0.3,0,0.6,0,1.1-0.1c0,0.3,0,0.7-0.1,1.2c0,0.5-0.1,1-0.1,1.7c-1.6,0-3.3,0-5,0
			C97.8,109,96,109,94.5,109z"/>
		<path style="fill:#999999;" d="M113.4,95.6c1,0,2,0.2,2.8,0.6c0.8,0.4,1.5,1.1,1.9,2.1c0.5,1,0.7,2.1,0.7,3.5c0,1-0.1,2.1-0.4,3.1
			c-0.3,1-0.7,1.8-1.2,2.5c-0.5,0.6-1.1,1.1-1.9,1.4s-1.7,0.5-2.6,0.5c-0.8,0-1.5-0.1-2.2-0.4c-0.7-0.2-1.3-0.7-1.8-1.2
			c-0.5-0.6-0.9-1.2-1.1-2c-0.2-0.8-0.3-1.6-0.3-2.5c0-1.1,0.1-2.1,0.4-3.1s0.7-1.9,1.2-2.5s1.2-1.1,1.9-1.4
			C111.7,95.7,112.6,95.6,113.4,95.6z M113.4,98.4c-0.3,0-0.6,0.1-0.8,0.3c-0.3,0.2-0.5,0.5-0.7,0.9c-0.2,0.5-0.4,1-0.5,1.6
			c-0.1,0.6-0.2,1.4-0.2,2.1c0,0.7,0.1,1.2,0.2,1.7c0.1,0.4,0.3,0.8,0.6,1c0.3,0.2,0.6,0.4,0.9,0.4c0.2,0,0.4,0,0.6-0.1
			c0.2-0.1,0.4-0.3,0.6-0.5c0.2-0.2,0.4-0.6,0.5-1.1c0.2-0.5,0.3-1,0.3-1.5c0.1-0.5,0.1-1,0.1-1.6c0-1.1-0.2-1.9-0.5-2.4
			C114.3,98.7,113.9,98.4,113.4,98.4z"/>
		<path style="fill:#999999;" d="M120.2,109c0-0.3,0-0.7,0.1-1.2c0-0.5,0-1,0.1-1.5c0.7-0.5,1.3-1.1,1.8-1.6
			c0.9-0.8,1.7-1.6,2.4-2.4c0.6-0.6,1-1.1,1.4-1.6c0.2-0.3,0.4-0.5,0.4-0.7c0.1-0.1,0.1-0.3,0.1-0.4c0-0.2,0-0.3-0.1-0.5
			c-0.1-0.1-0.2-0.3-0.4-0.4c-0.2-0.1-0.4-0.2-0.7-0.2c-0.3-0.1-0.5-0.1-0.9-0.1c-0.4,0-0.9,0-1.4,0.1s-1.2,0.2-2,0.4l0.3-1.4
			c0.1-0.3,0.1-0.8,0.3-1.6c1.7-0.3,3.3-0.4,4.8-0.4c0.7,0,1.3,0.1,1.9,0.2s1.2,0.3,1.7,0.6c0.5,0.3,0.9,0.6,1.1,1
			c0.2,0.4,0.4,0.8,0.4,1.3c0,0.3,0,0.6-0.1,0.9c-0.1,0.3-0.2,0.6-0.4,1c-0.2,0.5-0.5,0.9-0.9,1.4c-0.5,0.7-1.2,1.4-1.9,2.1
			c-0.7,0.7-1.5,1.4-2.4,2.3l1.1,0c0.3,0,0.7,0,1.5,0s1.3,0,1.5,0c0.3,0,0.6,0,1.1-0.1c0,0.3,0,0.7-0.1,1.2c0,0.5-0.1,1-0.1,1.7
			c-1.6,0-3.3,0-5,0C123.5,109,121.7,109,120.2,109z"/>
		<path style="fill:#999999;" d="M133.7,108.7c-0.1-1.3-0.2-2.3-0.2-3.1c1.4,0.5,2.7,0.7,3.9,0.7c0.7,0,1.3-0.1,1.7-0.4
			s0.7-0.7,0.7-1.2c0-0.5-0.2-0.8-0.7-1c-0.4-0.2-1.1-0.3-2.1-0.3c-0.6,0-1.2,0-1.7,0.1c0.1-1,0.2-2,0.2-3c0.5,0.1,0.9,0.1,1.5,0.1
			c0.6,0,1.1,0,1.4-0.1c0.4-0.1,0.7-0.2,0.9-0.4s0.3-0.4,0.3-0.7c0-0.2-0.1-0.4-0.2-0.6c-0.2-0.2-0.4-0.3-0.7-0.4
			c-0.3-0.1-0.7-0.1-1.2-0.1c-0.4,0-0.8,0-1.3,0.1c-0.5,0-1.1,0.1-1.9,0.3l0.5-2.2c0-0.2,0.1-0.4,0.1-0.6c1.4-0.2,2.7-0.3,3.8-0.3
			c0.8,0,1.5,0.1,2.2,0.2c0.7,0.1,1.3,0.3,1.8,0.6c0.5,0.3,0.9,0.6,1.1,1.1c0.2,0.4,0.4,0.9,0.4,1.5c0,0.3,0,0.6-0.1,0.9
			s-0.2,0.6-0.4,0.8c-0.2,0.3-0.4,0.5-0.6,0.7c-0.2,0.2-0.5,0.4-0.7,0.5s-0.5,0.3-0.9,0.4c0.4,0.1,0.7,0.2,1,0.3
			c0.2,0.1,0.5,0.2,0.7,0.4c0.2,0.2,0.4,0.4,0.6,0.6c0.2,0.2,0.3,0.5,0.4,0.8c0.1,0.3,0.1,0.6,0.1,0.9c0,0.6-0.1,1.2-0.4,1.8
			c-0.3,0.5-0.7,1-1.3,1.3c-0.6,0.4-1.2,0.6-2,0.8c-0.7,0.2-1.5,0.2-2.2,0.2c-0.7,0-1.4,0-2.1-0.1S134.6,108.9,133.7,108.7z"/>
	</g>
</g>
<g>
	<g>
		<path style="fill:#FFFFFF;" d="M-0.8,183.2c-0.1,1,0.7,1.9,1.7,1.9h3.4c0.9,0,1.6-0.6,1.7-1.5c0.1-0.5,0.2-1.2,0.4-1.9h33
			c0.2,0.7,0.3,1.4,0.4,1.9c0.1,0.8,0.8,1.5,1.7,1.5h3.4c1,0,1.8-0.9,1.7-1.9c-0.5-4-2.7-13.5-12.6-21.9c-1.8,1.3-3.9,2.6-6.2,3.8
			c0.7,0.5,1.2,1,1.8,1.5H16.1c2.2-1.9,5-3.8,8.3-5.4c18.2-9,21.5-23.1,22.1-28.2c0.1-1-0.7-1.9-1.7-1.9h-3.4
			c-0.9,0-1.6,0.6-1.7,1.5c-0.1,0.5-0.2,1.2-0.4,1.9h-33c-0.1-0.8-0.2-1.5-0.3-2c-0.1-0.9-0.8-1.5-1.7-1.5H0.9c-1,0-1.8,0.9-1.7,1.9
			c0.5,4.5,3.3,16.3,16.9,25.2C2.5,167-0.2,178.7-0.8,183.2z M22.9,154.2c-2.7-1.5-4.9-3-6.8-4.6h13.6
			C27.8,151.2,25.5,152.8,22.9,154.2z M36.7,141.2c-0.6,1.1-1.4,2.2-2.2,3.3H11.2c-0.9-1.1-1.6-2.3-2.2-3.4L36.7,141.2z M9,174.9
			c0.6-1.1,1.3-2.2,2.2-3.4h23.2c0.9,1.1,1.6,2.3,2.2,3.4H9z"/>
	</g>
	<g>
		<path style="fill:#FFFFFF;" d="M54.8,153.5c0.1-1.1,0.2-2.1,0.3-2.9c0.1-0.9,0.1-1.9,0.2-3c0-1.2,0.1-2.4,0.1-3.6c0-1.3,0-2.3,0-3
			c0.8,0,1.4,0,1.9,0c0.5,0,1.1,0,1.8,0c0.7,0,1.4,0,2.1,0c0.8,0,1.5,0,2.1,0.1c0.5,0,0.9,0.1,1.3,0.3c0.4,0.1,0.7,0.3,1,0.5
			c0.3,0.2,0.5,0.4,0.6,0.7c0.2,0.2,0.3,0.5,0.4,0.8c0.1,0.3,0.1,0.7,0.1,1c0,0.4-0.1,0.8-0.2,1.2c-0.1,0.4-0.3,0.7-0.5,1
			c-0.2,0.3-0.5,0.6-0.9,0.8c-0.3,0.2-0.8,0.5-1.4,0.7l0.5,1.2c0.1,0.3,0.3,0.7,0.4,1l1.2,2.7c0.1,0.1,0.2,0.3,0.3,0.7
			c-1,0-1.7,0-2.1,0c-0.4,0-1.2,0-2.2,0c-0.1-0.3-0.3-0.9-0.5-1.8c-0.1-0.4-0.2-0.6-0.3-0.8c-0.1-0.4-0.4-1.1-0.7-1.8l-1-2.6
			c0.3,0.1,0.7,0.1,1,0.1c0.5,0,0.9-0.1,1.2-0.2c0.4-0.1,0.6-0.3,0.8-0.6c0.2-0.3,0.3-0.6,0.3-0.9c0-0.3-0.1-0.5-0.2-0.7
			c-0.1-0.2-0.4-0.3-0.7-0.4c-0.3-0.1-0.8-0.1-1.4-0.1c-0.2,0-0.4,0-0.7,0c-0.2,0-0.5,0-0.8,0c-0.1,1.3-0.1,2.8-0.2,4.6
			s-0.1,3.6-0.1,5.4c-1,0-1.7,0-2,0C56.4,153.4,55.7,153.5,54.8,153.5z"/>
		<path style="fill:#FFFFFF;" d="M68.1,153.5c0.2-1.6,0.3-2.9,0.3-4s0.1-2.5,0.2-4.3c0.1-1.8,0.1-3,0.1-3.5l0-0.8c1.5,0,3.2,0,5.3,0
			c1.9,0,3.6,0,5.1,0l0,0.3c0,0.1,0,0.3,0,0.8l-0.1,1c0,0.2,0,0.4,0,0.7c-1.2,0-2.2-0.1-3-0.1c-0.9,0-1.5,0-1.8,0
			c-0.3,0-0.8,0-1.5,0l-0.1,2.1c0.7,0,1.6,0,2.6,0c0.3,0,1.3,0,2.8-0.1c-0.1,0.8-0.1,1.7-0.2,2.8c-1.1,0-1.9,0-2.5,0
			c-0.9,0-1.8,0-2.9,0.1l-0.1,2.3h1.1c0.3,0,1,0,2,0l1.9,0c0.3,0,0.8,0,1.4-0.1c-0.1,0.9-0.1,1.9-0.2,2.8c-1.5,0-3.2,0-5,0l-4.1,0
			L68.1,153.5z"/>
		<path style="fill:#FFFFFF;" d="M91.6,150.4c-0.1,0.4-0.2,0.9-0.3,1.5c-0.1,0.7-0.2,1.2-0.2,1.5c-1.3,0.2-2.5,0.3-3.5,0.3
			c-1,0-1.9-0.1-2.8-0.4c-0.9-0.2-1.7-0.7-2.4-1.2c-0.7-0.6-1.2-1.2-1.5-2c-0.3-0.8-0.5-1.6-0.5-2.6c0-1.1,0.2-2.1,0.6-3
			c0.4-0.9,1-1.6,1.8-2.2c0.8-0.6,1.6-1,2.6-1.3c0.9-0.3,1.9-0.4,2.9-0.4c0.9,0,2,0.1,3.4,0.4l0,0.8c0,0.3,0,0.7,0.1,1.1l0.1,1.1
			c-0.7-0.2-1.3-0.3-1.8-0.4c-0.4-0.1-0.9-0.1-1.2-0.1c-0.8,0-1.6,0.2-2.3,0.5s-1.2,0.8-1.6,1.5c-0.4,0.6-0.6,1.3-0.6,2.1
			c0,0.7,0.2,1.3,0.5,1.8c0.3,0.5,0.8,0.9,1.3,1.2c0.5,0.3,1.2,0.4,2,0.4c0.4,0,0.9,0,1.4-0.1C90.2,150.7,90.8,150.6,91.6,150.4z"/>
		<path style="fill:#FFFFFF;" d="M101,140.6c1,0,1.9,0.1,2.9,0.4c0.9,0.3,1.7,0.7,2.4,1.3c0.7,0.6,1.2,1.3,1.5,2
			c0.3,0.8,0.5,1.6,0.5,2.6c0,1-0.2,2-0.6,2.9s-0.9,1.6-1.6,2.2c-0.7,0.6-1.5,1-2.5,1.3c-1,0.3-2,0.4-3.1,0.4c-1,0-2-0.1-3-0.4
			c-1-0.3-1.8-0.7-2.5-1.3c-0.7-0.6-1.2-1.3-1.5-2.1c-0.3-0.8-0.4-1.6-0.4-2.5c0-1.4,0.3-2.5,0.9-3.6c0.6-1,1.6-1.8,2.8-2.4
			C98.1,140.8,99.5,140.6,101,140.6z M100.9,143.4c-0.7,0-1.4,0.2-1.9,0.5s-1,0.8-1.3,1.5c-0.3,0.6-0.5,1.3-0.5,2
			c0,0.7,0.1,1.3,0.4,1.8c0.3,0.5,0.7,1,1.3,1.3c0.6,0.3,1.2,0.5,1.8,0.5c0.7,0,1.3-0.2,1.9-0.5c0.6-0.3,1-0.8,1.3-1.4
			c0.3-0.6,0.5-1.3,0.5-2c0-0.7-0.1-1.3-0.4-1.8c-0.3-0.6-0.7-1-1.2-1.3C102.1,143.5,101.5,143.4,100.9,143.4z"/>
		<path style="fill:#FFFFFF;" d="M109.6,153.5l0.2-1.9l0.6-6.5l0.3-4.3c1.1,0,2,0,2.7,0c0.5,0,1.4,0,2.5,0c0.1,0.5,0.1,0.9,0.2,1.2
			c0.1,0.3,0.2,0.8,0.4,1.6c0.2,0.8,0.4,1.5,0.5,2.1c0.1,0.6,0.3,1.6,0.6,3c0.3-1,0.5-1.8,0.7-2.5s0.5-1.5,0.8-2.4
			c0.3-0.9,0.5-1.5,0.6-1.7c0.1-0.3,0.2-0.7,0.4-1.3c0.9,0,1.8,0,2.7,0c0.6,0,1.4,0,2.5,0c-0.1,2.1-0.2,3.9-0.2,5.4
			c-0.1,2.9-0.1,4.9-0.1,6c0,0.2,0,0.6,0,1.2c-0.8,0-1.4,0-1.7,0c-0.5,0-1.1,0-1.8,0c0-0.6,0.1-1.9,0.2-4c0.1-2.1,0.1-3.4,0.1-4
			c0-0.3,0-0.6,0-1.1l-1.2,3.8l-1.7,5.3c-0.8,0-1.4,0-1.7,0c-0.4,0-1,0-1.8,0l-1.1-5.1l-0.7-2.7c0-0.1-0.1-0.2-0.1-0.4
			c0-0.2-0.1-0.4-0.1-0.8l-0.2,2.6l-0.3,5.3l0,1.2c-0.9,0-1.4,0-1.6,0C111,153.4,110.4,153.5,109.6,153.5z"/>
		<path style="fill:#FFFFFF;" d="M127.4,153.5c0.1-1.4,0.2-2.4,0.3-3.2c0.1-1.1,0.1-2.5,0.2-4.4s0.1-3.2,0.1-3.9c0-0.3,0-0.7,0-1.2
			c0.8,0,1.5,0,2,0c0.7,0,1.5,0,2.4,0c0.9,0,1.7,0,2.3,0c0.8,0,1.3,0,1.7,0.1c0.4,0.1,0.8,0.2,1.1,0.3c0.3,0.1,0.6,0.3,0.8,0.5
			c0.2,0.2,0.4,0.5,0.6,0.9c0.2,0.4,0.2,0.8,0.2,1.3c0,0.4,0,0.7-0.1,1s-0.2,0.6-0.4,0.9c-0.2,0.2-0.3,0.5-0.6,0.6
			c-0.2,0.2-0.4,0.3-0.6,0.4c-0.2,0.1-0.5,0.2-0.8,0.3c0.3,0.1,0.6,0.1,0.8,0.2c0.2,0.1,0.4,0.2,0.6,0.3c0.2,0.2,0.4,0.4,0.6,0.6
			c0.2,0.2,0.3,0.5,0.4,0.8c0.1,0.3,0.1,0.6,0.1,1c0,0.5-0.1,0.9-0.2,1.3c-0.2,0.4-0.4,0.8-0.6,1.1c-0.2,0.3-0.5,0.5-0.9,0.6
			c-0.4,0.2-0.8,0.3-1.2,0.4c-0.3,0.1-0.9,0.1-1.8,0.1c-0.9,0-1.8,0-2.7,0l-2.4,0L127.4,153.5z M131.3,150.9h1.8c0.5,0,0.8,0,1-0.1
			c0.3-0.1,0.5-0.2,0.6-0.3c0.1-0.1,0.3-0.3,0.3-0.5c0.1-0.2,0.1-0.4,0.1-0.6c0-0.2,0-0.4-0.1-0.5c-0.1-0.2-0.2-0.3-0.3-0.4
			c-0.1-0.1-0.3-0.2-0.5-0.2c-0.2,0-0.5-0.1-0.9-0.1h-2L131.3,150.9z M131.5,145.7h1.3c0.4,0,0.7,0,0.9,0s0.4-0.1,0.5-0.1
			c0.2-0.1,0.3-0.1,0.5-0.3s0.2-0.3,0.3-0.4c0.1-0.2,0.1-0.3,0.1-0.5c0-0.2-0.1-0.4-0.2-0.6c-0.1-0.2-0.3-0.3-0.5-0.4
			c-0.2-0.1-0.6-0.1-1.1-0.1h-1.7L131.5,145.7z"/>
		<path style="fill:#FFFFFF;" d="M139.8,149.8c0.1-0.9,0.1-1.8,0.1-2.6c0.9,0,1.7,0,2.5,0c0.8,0,1.6,0,2.5,0
			c-0.1,0.8-0.1,1.7-0.1,2.6c-0.9,0-1.7,0-2.5,0C141.5,149.8,140.7,149.8,139.8,149.8z"/>
		<path style="fill:#FFFFFF;" d="M145.8,153.3c-0.1-1.3-0.2-2.4-0.3-3.2c0.7,0.3,1.3,0.5,1.9,0.6s1,0.2,1.4,0.2c0.5,0,1-0.1,1.3-0.2
			c0.3-0.2,0.5-0.4,0.5-0.7c0-0.1,0-0.2,0-0.3c0-0.1-0.1-0.2-0.2-0.3c-0.1-0.1-0.2-0.3-0.4-0.4l-1.7-1.5c-0.4-0.3-0.7-0.6-0.9-0.8
			c-0.3-0.3-0.6-0.6-0.8-0.9c-0.2-0.3-0.3-0.5-0.4-0.8c-0.1-0.3-0.1-0.6-0.1-0.9c0-0.4,0.1-0.7,0.2-1.1s0.3-0.7,0.6-1
			s0.6-0.6,1.1-0.8s0.9-0.4,1.4-0.5s1-0.1,1.5-0.1c1,0,2.2,0.1,3.4,0.4c0,0.4,0,0.8,0.1,1.2s0.1,1,0.2,1.9c-0.6-0.2-1.1-0.4-1.6-0.5
			c-0.5-0.1-0.9-0.1-1.2-0.1c-0.5,0-0.9,0.1-1.2,0.3c-0.3,0.2-0.5,0.4-0.5,0.7c0,0.1,0,0.2,0.1,0.4c0,0.1,0.1,0.3,0.3,0.4
			c0.1,0.2,0.3,0.3,0.5,0.5c0.2,0.2,0.6,0.5,1,0.8l0.7,0.5c0.2,0.2,0.4,0.4,0.6,0.6c0.2,0.2,0.4,0.5,0.6,0.7
			c0.2,0.2,0.3,0.4,0.4,0.6c0.1,0.2,0.2,0.4,0.2,0.6c0,0.2,0.1,0.4,0.1,0.6c0,0.6-0.1,1.1-0.4,1.6c-0.3,0.5-0.6,0.9-1.1,1.2
			s-1,0.6-1.6,0.7c-0.6,0.1-1.2,0.2-1.9,0.2C148.6,153.7,147.3,153.6,145.8,153.3z"/>
		<path style="fill:#FFFFFF;" d="M156.4,153.5c0.2-1.6,0.3-2.9,0.3-4s0.1-2.5,0.2-4.3c0.1-1.8,0.1-3,0.1-3.5l0-0.8
			c1.5,0,3.2,0,5.3,0c1.9,0,3.6,0,5.1,0l0,0.3c0,0.1,0,0.3,0,0.8l-0.1,1c0,0.2,0,0.4,0,0.7c-1.2,0-2.2-0.1-3-0.1c-0.9,0-1.5,0-1.8,0
			c-0.3,0-0.8,0-1.5,0l-0.1,2.1c0.7,0,1.6,0,2.6,0c0.3,0,1.3,0,2.8-0.1c-0.1,0.8-0.1,1.7-0.2,2.8c-1.1,0-1.9,0-2.5,0
			c-0.9,0-1.8,0-2.9,0.1l-0.1,2.3h1.1c0.3,0,1,0,2,0l1.9,0c0.3,0,0.8,0,1.4-0.1c-0.1,0.9-0.1,1.9-0.2,2.8c-1.5,0-3.2,0-5,0l-4.1,0
			L156.4,153.5z"/>
		<path style="fill:#FFFFFF;" d="M184.3,150.3c-0.1,0.5-0.2,0.9-0.3,1.4l-0.3,1.5c-1,0.2-2.2,0.3-3.5,0.4c-1.3,0.1-2.6,0.1-3.6,0.1
			c-0.9,0-1.8-0.1-2.6-0.2s-1.6-0.4-2.3-0.8c-0.7-0.4-1.3-0.9-1.7-1.4c-0.5-0.6-0.8-1.2-1-1.8c-0.2-0.6-0.3-1.3-0.3-2
			c0-1,0.2-1.9,0.5-2.7c0.4-0.8,0.9-1.5,1.6-2.1c0.7-0.6,1.5-1.1,2.5-1.4c1-0.3,2.1-0.5,3.4-0.5c1,0,1.9,0.1,2.8,0.4
			c0.9,0.3,1.7,0.7,2.4,1.3c0.7,0.6,1.2,1.2,1.5,2c0.4,0.8,0.5,1.5,0.5,2.3c0,0.4,0,0.9-0.1,1.3s-0.2,0.8-0.4,1.2
			c-0.2,0.4-0.4,0.7-0.6,0.9c-0.2,0.3-0.5,0.6-0.8,0.9c0.6-0.1,1-0.1,1.3-0.2C183.5,150.5,183.8,150.4,184.3,150.3z M176.4,143.4
			c-0.7,0-1.4,0.2-2,0.5s-1.1,0.8-1.4,1.5s-0.5,1.3-0.5,1.9c0,0.7,0.2,1.3,0.5,1.9c0.3,0.5,0.7,0.9,1.3,1.2s1.2,0.4,1.8,0.4
			c0.7,0,1.3-0.2,1.9-0.5c0.6-0.3,1-0.8,1.3-1.4c0.3-0.6,0.5-1.3,0.5-2c0-0.7-0.1-1.3-0.4-1.8c-0.3-0.6-0.7-1-1.2-1.3
			C177.7,143.5,177.1,143.4,176.4,143.4z"/>
	</g>
	<g>
		<path style="fill:#FFFFFF;" d="M94.3,173.5c0-0.3,0-0.7,0.1-1.2c0-0.5,0-1,0.1-1.5c0.7-0.5,1.3-1.1,1.8-1.6
			c0.9-0.8,1.7-1.6,2.4-2.4c0.6-0.6,1-1.1,1.4-1.6c0.2-0.3,0.4-0.5,0.4-0.7c0.1-0.1,0.1-0.3,0.1-0.4c0-0.2,0-0.3-0.1-0.5
			c-0.1-0.1-0.2-0.3-0.4-0.4c-0.2-0.1-0.4-0.2-0.7-0.2c-0.3-0.1-0.5-0.1-0.9-0.1c-0.4,0-0.9,0-1.4,0.1s-1.2,0.2-2,0.4l0.3-1.4
			c0.1-0.3,0.1-0.8,0.3-1.6c1.7-0.3,3.3-0.4,4.8-0.4c0.7,0,1.3,0.1,1.9,0.2c0.6,0.1,1.2,0.3,1.7,0.6c0.5,0.3,0.9,0.6,1.1,1
			c0.2,0.4,0.4,0.8,0.4,1.3c0,0.3,0,0.6-0.1,0.9c-0.1,0.3-0.2,0.6-0.4,1c-0.2,0.5-0.5,0.9-0.9,1.4c-0.5,0.7-1.2,1.4-1.9,2.1
			c-0.7,0.7-1.5,1.4-2.4,2.3l1.1,0c0.3,0,0.7,0,1.5,0s1.3,0,1.5,0c0.3,0,0.6,0,1.1-0.1c0,0.3,0,0.7-0.1,1.2c0,0.5-0.1,1-0.1,1.7
			c-1.6,0-3.3,0-5,0C97.6,173.5,95.8,173.5,94.3,173.5z"/>
		<path style="fill:#FFFFFF;" d="M113.2,160.1c1,0,2,0.2,2.8,0.6c0.8,0.4,1.5,1.1,1.9,2.1c0.5,1,0.7,2.1,0.7,3.5
			c0,1-0.1,2.1-0.4,3.1c-0.3,1-0.7,1.8-1.2,2.5c-0.5,0.6-1.1,1.1-1.9,1.4s-1.7,0.5-2.6,0.5c-0.8,0-1.5-0.1-2.2-0.4s-1.3-0.7-1.8-1.2
			c-0.5-0.6-0.9-1.2-1.1-2s-0.3-1.6-0.3-2.5c0-1.1,0.1-2.1,0.4-3.1c0.3-1,0.7-1.9,1.2-2.5c0.5-0.6,1.2-1.1,1.9-1.4
			C111.5,160.3,112.4,160.1,113.2,160.1z M113.2,163c-0.3,0-0.6,0.1-0.8,0.3c-0.3,0.2-0.5,0.5-0.7,0.9c-0.2,0.5-0.4,1-0.5,1.6
			c-0.1,0.7-0.2,1.4-0.2,2.1c0,0.7,0.1,1.2,0.2,1.7s0.3,0.8,0.6,1c0.3,0.2,0.6,0.4,0.9,0.4c0.2,0,0.4,0,0.6-0.1
			c0.2-0.1,0.4-0.2,0.6-0.5s0.4-0.6,0.5-1.1s0.3-1,0.3-1.5c0.1-0.5,0.1-1,0.1-1.6c0-1.1-0.2-1.9-0.5-2.4
			C114.1,163.2,113.7,163,113.2,163z"/>
		<path style="fill:#FFFFFF;" d="M120,173.5c0-0.3,0-0.7,0.1-1.2c0-0.5,0-1,0.1-1.5c0.7-0.5,1.3-1.1,1.8-1.6
			c0.9-0.8,1.7-1.6,2.4-2.4c0.6-0.6,1-1.1,1.4-1.6c0.2-0.3,0.4-0.5,0.4-0.7c0.1-0.1,0.1-0.3,0.1-0.4c0-0.2,0-0.3-0.1-0.5
			c-0.1-0.1-0.2-0.3-0.4-0.4c-0.2-0.1-0.4-0.2-0.7-0.2c-0.3-0.1-0.5-0.1-0.9-0.1c-0.4,0-0.9,0-1.4,0.1s-1.2,0.2-2,0.4l0.3-1.4
			c0.1-0.3,0.1-0.8,0.3-1.6c1.7-0.3,3.3-0.4,4.8-0.4c0.7,0,1.3,0.1,1.9,0.2c0.6,0.1,1.2,0.3,1.7,0.6c0.5,0.3,0.9,0.6,1.1,1
			c0.2,0.4,0.4,0.8,0.4,1.3c0,0.3,0,0.6-0.1,0.9c-0.1,0.3-0.2,0.6-0.4,1c-0.2,0.5-0.5,0.9-0.9,1.4c-0.5,0.7-1.2,1.4-1.9,2.1
			c-0.7,0.7-1.5,1.4-2.4,2.3l1.1,0c0.3,0,0.7,0,1.5,0s1.3,0,1.5,0c0.3,0,0.6,0,1.1-0.1c0,0.3,0,0.7-0.1,1.2c0,0.5-0.1,1-0.1,1.7
			c-1.6,0-3.3,0-5,0C123.3,173.5,121.5,173.5,120,173.5z"/>
		<path style="fill:#FFFFFF;" d="M133.5,173.3c-0.1-1.3-0.2-2.3-0.2-3.1c1.4,0.5,2.7,0.7,3.9,0.7c0.7,0,1.3-0.1,1.7-0.4
			c0.4-0.3,0.7-0.7,0.7-1.2c0-0.5-0.2-0.8-0.7-1c-0.4-0.2-1.1-0.3-2.1-0.3c-0.6,0-1.2,0-1.7,0.1c0.1-1,0.2-2,0.2-3
			c0.5,0.1,0.9,0.1,1.5,0.1c0.6,0,1.1,0,1.4-0.1c0.4-0.1,0.7-0.2,0.9-0.4s0.3-0.4,0.3-0.7c0-0.2-0.1-0.4-0.2-0.6s-0.4-0.3-0.7-0.4
			c-0.3-0.1-0.7-0.1-1.2-0.1c-0.4,0-0.8,0-1.3,0.1c-0.5,0-1.1,0.1-1.9,0.3l0.5-2.2c0-0.2,0.1-0.4,0.1-0.6c1.4-0.2,2.7-0.3,3.8-0.3
			c0.8,0,1.5,0.1,2.2,0.2c0.7,0.1,1.3,0.3,1.8,0.6c0.5,0.3,0.9,0.6,1.1,1.1s0.4,0.9,0.4,1.5c0,0.3,0,0.6-0.1,0.9
			c-0.1,0.3-0.2,0.6-0.4,0.8c-0.2,0.3-0.4,0.5-0.6,0.7c-0.2,0.2-0.5,0.4-0.7,0.5c-0.2,0.1-0.5,0.3-0.9,0.4c0.4,0.1,0.7,0.2,1,0.3
			c0.2,0.1,0.5,0.2,0.7,0.4s0.4,0.4,0.6,0.6s0.3,0.5,0.4,0.8c0.1,0.3,0.1,0.6,0.1,0.9c0,0.6-0.1,1.2-0.4,1.8c-0.3,0.5-0.7,1-1.3,1.3
			c-0.6,0.4-1.2,0.6-2,0.8c-0.7,0.2-1.5,0.2-2.2,0.2c-0.7,0-1.4,0-2.1-0.1C135.2,173.6,134.4,173.4,133.5,173.3z"/>
	</g>
</g>
</svg>
